<svg width="59" height="59" viewBox="0 0 59 59" fill="none" xmlns="http://www.w3.org/2000/svg">
<path d="M59 13.415V47.608C59 49.8303 57.2005 51.6298 54.9782 51.6298H45.5898V28.8361L29.5 40.9065L13.4102 28.8361V51.6323H4.02183C3.49347 51.6323 2.97029 51.5281 2.48218 51.3259C1.99407 51.1236 1.55059 50.8271 1.1771 50.4534C0.803605 50.0797 0.50741 49.636 0.305439 49.1478C0.103467 48.6596 -0.000322208 48.1363 7.51393e-07 47.608V13.415C7.51393e-07 8.44179 5.67629 5.60242 9.65388 8.58683L13.4102 11.4065L29.5 23.472L45.5898 11.4016L49.3461 8.58683C53.3212 5.60487 59 8.44179 59 13.415Z" fill="white"/>
</svg>
