<svg width="790" height="314" viewBox="0 0 790 314" fill="none" xmlns="http://www.w3.org/2000/svg">
<path d="M742.344 283.386C728.448 309.262 -1.10425 307.09 0.00125513 283.385C13.8977 257.51 743.45 259.682 742.344 283.386Z" fill="#FFD5E9"/>
<path d="M633.637 281.974C633.637 281.974 657.647 201.187 566.338 155.193L633.637 281.974Z" fill="#FD719B"/>
<path d="M636.629 282.405C636.629 282.405 646.146 202.673 752.488 197.675L636.629 282.405Z" fill="#FD719B"/>
<path d="M265.656 253.644L240.837 251.99L249.11 289.218L277.238 277.636L265.656 253.644Z" fill="#FFB9B9"/>
<path d="M493.165 184.15L435.254 127.894L402.162 153.54L336.804 232.134L344.25 243.716L423.672 189.942L477.446 260.263L528.739 234.616L493.165 184.15Z" fill="#2F2E41"/>
<path opacity="0.55" d="M493.165 184.15L435.254 127.894L402.162 153.54L336.804 232.134L344.25 243.716L423.672 189.942L477.446 260.263L528.739 234.616L493.165 184.15Z" fill="#424040"/>
<path d="M498.13 221.379L490.684 227.171L430.29 206.488L416.226 200.697L388.098 206.488C388.098 206.488 388.098 183.323 414.572 184.151L441.873 190.769L474.138 193.251L498.13 221.379Z" fill="#FFB9B9"/>
<path d="M551.904 282.6L533.703 294.182H512.193L412.089 256.953L265.656 283.427L261.519 251.99L395.543 193.251L513.021 232.134L551.904 282.6Z" fill="#424040"/>
<path d="M434.427 135.34L422.017 137.822L419.313 134.667C417.172 132.169 415.816 129.095 415.414 125.83C415.012 122.565 415.582 119.254 417.053 116.312V116.312L451.8 70.8097C451.8 70.8097 461.728 48.4725 477.447 57.5728C493.166 66.6732 464.21 81.5647 464.21 81.5647L446.837 108.866L448.491 122.93L434.427 135.34Z" fill="#FFB9B9"/>
<path d="M513.021 81.5647C530.84 81.5647 545.286 67.1192 545.286 49.2997C545.286 31.4803 530.84 17.0348 513.021 17.0348C495.202 17.0348 480.756 31.4803 480.756 49.2997C480.756 67.1192 495.202 81.5647 513.021 81.5647Z" fill="#FFB9B9"/>
<path d="M498.543 72.878L513.435 108.452L549.009 93.5607C549.009 93.5607 537.427 65.4322 537.427 64.6049C537.427 63.7776 498.543 72.878 498.543 72.878Z" fill="#FFB9B9"/>
<path d="M596.504 178.12C596.504 197.592 593.436 216.943 587.412 235.46L584.997 242.889L573.414 295.837L561.005 299.146L551.904 287.564L533.704 274.327L520.467 252.817L509.116 233.905L505.575 227.998L493.166 165.95L446.009 139.476L430.29 136.994L433.6 127.894L447.664 108.866L461.728 107.211L465.865 103.902L469.174 105.557L482.411 98.1108L486.547 99.7654L510.738 102.016L525.431 98.9381L546.56 87.5957L555.214 89.0104L584.997 113.83C592.61 134.409 596.507 156.177 596.504 178.12V178.12Z" fill="#2F68A6"/>
<path d="M248.456 266.455C248.456 266.455 255.866 253.896 252.736 252.43C249.606 250.964 236.314 245.119 236.314 245.119L216.822 238.659C216.822 238.659 188.696 196.858 188.079 233.209C187.461 269.559 208.558 278.297 208.558 278.297C208.558 278.297 227.373 318.79 238.032 312.333C248.69 305.876 259.355 283.957 259.355 283.957C259.355 283.957 240.135 273.625 248.456 266.455Z" fill="#2F2E41"/>
<path opacity="0.1" d="M587.478 170.914L556.041 191.596L509.116 233.905L505.575 227.998L495.647 178.359H498.129L523.776 131.203L587.478 170.914Z" fill="black"/>
<path d="M523.776 126.239L498.129 173.395H489.029L483.238 189.942L470.001 193.251L505.575 232.134L556.041 186.632L587.478 165.95L523.776 126.239Z" fill="#2F68A6"/>
<path d="M487.925 25.3093L484.43 26.6543C483.892 26.2902 483.432 25.8225 483.078 25.2785C482.723 24.7346 482.481 24.1253 482.364 23.4864C482.248 22.8476 482.261 22.1919 482.401 21.5579C482.541 20.9239 482.807 20.3243 483.182 19.7943L476.722 19.492C480.869 13.9688 486.141 9.38918 492.191 6.05614C498.24 2.7231 504.928 0.7126 511.813 0.157698C518.697 -0.397203 525.621 0.516135 532.126 2.83726C538.631 5.15839 544.569 8.8344 549.547 13.6221C549.841 12.6091 553.047 14.58 554.356 16.5784C554.796 14.93 557.802 22.8983 558.866 28.5308C559.358 26.6554 561.251 29.683 559.593 32.5881C560.643 32.4346 561.118 35.1227 560.305 36.6203C561.454 36.0803 561.26 39.2891 560.014 41.4335C561.654 41.2878 547.078 63.9093 541.177 77.1295C539.463 69.2561 537.537 60.9653 532.011 55.1004C531.072 54.1035 530.044 53.1955 529.017 52.2891L523.463 47.3869C517.005 41.6864 511.131 34.6509 502.528 32.5204C496.615 31.0563 492.877 30.7258 496.099 24.0636C493.188 25.2784 490.47 27.0849 487.533 28.2132C487.572 27.2823 487.983 26.2407 487.925 25.3093Z" fill="#2F2E41"/>
<path d="M529.153 58.8138C532.352 58.8138 534.945 56.221 534.945 53.0226C534.945 49.8242 532.352 47.2314 529.153 47.2314C525.955 47.2314 523.362 49.8242 523.362 53.0226C523.362 56.221 525.955 58.8138 529.153 58.8138Z" fill="#FFB9B9"/>
</svg>
