<svg width="410" height="136" viewBox="0 0 410 136" fill="none" xmlns="http://www.w3.org/2000/svg">
<path d="M19.2166 37.0292C21.465 37.0751 23.7822 37.1898 26.1683 37.3734C28.5543 37.5569 30.9404 37.901 33.3264 38.4058L32.9134 42.8108C30.9404 42.719 28.7608 42.6502 26.3747 42.6043C23.9887 42.5125 21.6944 42.4667 19.4919 42.4667C17.1976 42.4667 15.3392 42.5814 13.9168 42.8108C12.5402 43.0402 11.5307 43.6597 10.8883 44.6692C10.2459 45.6787 9.92474 47.3535 9.92474 49.6937C9.92474 52.3091 10.3836 54.1446 11.3013 55.1999C12.2649 56.2094 13.8021 56.9665 15.9128 57.4713L25.5488 59.8803C29.2197 60.7521 31.7204 62.2893 33.0511 64.4918C34.4277 66.6484 35.116 69.5621 35.116 73.233C35.116 76.858 34.5653 79.6111 33.4641 81.4924C32.3628 83.3278 30.6421 84.5667 28.3019 85.2091C25.9618 85.8515 22.9333 86.1727 19.2166 86.1727C17.6565 86.1727 15.6146 86.1039 13.0908 85.9663C10.613 85.8286 7.74517 85.4615 4.48729 84.865L4.90026 80.3912C7.60751 80.4829 9.78708 80.5747 11.439 80.6665C13.0908 80.7124 14.5133 80.7353 15.7063 80.7353C16.8994 80.7353 18.1383 80.7353 19.4231 80.7353C21.855 80.7353 23.7593 80.5518 25.1358 80.1847C26.5583 79.8176 27.5448 79.0834 28.0955 77.9822C28.692 76.8809 28.9902 75.252 28.9902 73.0953C28.9902 71.2599 28.7837 69.8375 28.3708 68.828C27.9578 67.8185 27.2925 67.0614 26.3747 66.5566C25.5029 66.006 24.3787 65.5701 23.0021 65.2489L13.1597 62.7711C9.71825 61.8992 7.28631 60.385 5.86386 58.2284C4.48729 56.0718 3.799 53.181 3.799 49.556C3.799 45.8393 4.34963 43.1091 5.45089 41.3654C6.55214 39.5759 8.22697 38.4058 10.4754 37.8551C12.7696 37.3045 15.6834 37.0292 19.2166 37.0292ZM89.4593 37.8551C91.1112 37.8551 91.9371 38.704 91.9371 40.4018L93.9331 85.3468H87.8762L86.1555 42.8796H84.7101L74.1105 77.9133C73.7434 79.2899 72.8716 79.9782 71.495 79.9782H66.0576C64.6351 79.9782 63.7174 79.2899 63.3044 77.9133L52.7049 42.8796H51.3283L49.6764 85.3468H43.6195L45.4779 40.4018C45.5696 38.704 46.4185 37.8551 48.0245 37.8551H54.9074C56.1922 37.8551 57.0411 38.5434 57.454 39.92L66.3329 68.8968C66.7 69.9522 66.9982 71.0075 67.2277 72.0629C67.503 73.1183 67.8012 74.1966 68.1224 75.2978H69.3614C69.6826 74.1966 69.9808 73.1183 70.2561 72.0629C70.5314 71.0075 70.8297 69.9063 71.1509 68.7591L80.0298 39.92C80.3969 38.5434 81.2687 37.8551 82.6453 37.8551H89.4593ZM110.999 37.8551V85.3468H104.942V37.8551H110.999ZM155.306 37.8551V43.2238H139.957V85.3468H133.9V43.2238H118.62V37.8551H155.306ZM195.299 37.8551L179.537 68.6903V85.3468H173.48V68.5527L157.718 37.8551H164.188L174.168 57.8842C174.581 58.7561 174.948 59.6508 175.27 60.5685C175.637 61.4863 175.981 62.381 176.302 63.2529H176.784C177.105 62.381 177.449 61.4863 177.816 60.5685C178.183 59.6508 178.55 58.779 178.917 57.9531L188.898 37.8551H195.299Z" fill="#424040"/>
<path d="M332.435 37.8551C334.913 37.8551 336.198 39.1399 336.29 41.7095L338.079 85.3468H328.374L326.791 45.9081H325.552L317.912 75.5732C317.453 77.7757 316.077 78.8769 313.783 78.8769H307.175C304.835 78.8769 303.435 77.7757 302.977 75.5732L295.268 45.9081H294.098L292.652 85.3468H282.947L284.668 41.7095C284.76 39.1399 286.068 37.8551 288.591 37.8551H298.434C300.682 37.8551 302.059 38.9564 302.564 41.1589L308.689 65.1112C308.965 66.2125 309.194 67.3367 309.378 68.4838C309.561 69.5851 309.768 70.7093 309.997 71.8564H310.892C311.121 70.7093 311.328 69.5851 311.511 68.4838C311.695 67.3367 311.924 66.1895 312.2 65.0424L318.256 41.1589C318.715 38.9564 320.115 37.8551 322.455 37.8551H332.435ZM356.529 37.6487C360.246 37.6487 364.101 37.6946 368.093 37.7863C372.085 37.8322 375.733 38.0157 379.036 38.337L378.555 45.9769H360.315C358.021 45.9769 356.874 47.147 356.874 49.4872V56.9206H376.008V64.3541H356.874V73.7148C356.874 76.055 358.021 77.225 360.315 77.225H378.555L379.036 84.865C375.733 85.1862 372.085 85.3697 368.093 85.4156C364.101 85.4615 360.246 85.4845 356.529 85.4845C353.501 85.4845 351.046 84.6356 349.165 82.9378C347.283 81.1942 346.343 78.8769 346.343 75.9861V47.2158C346.343 44.325 347.283 42.0078 349.165 40.2641C351.046 38.5205 353.501 37.6487 356.529 37.6487Z" fill="#FD719B"/>
<path d="M231.819 70.0424C232.691 67.8399 233.127 65.7292 233.127 63.7102C233.127 63.0678 232.714 62.7007 231.888 62.609L229.685 62.4713V57.1027H244.208V62.6778L240.423 62.8154C240.423 67.2205 239.459 71.2584 237.532 74.9292C239.597 76.6729 242.487 78.8754 246.204 81.5368L241.662 87.5249C238.908 85.6894 236.018 83.5328 232.989 81.055C229.594 84.4505 225.005 86.1483 219.223 86.1483C213.442 86.1483 209.22 84.7947 206.559 82.0874C203.898 79.3802 202.567 76.0764 202.567 72.1761C202.567 66.1192 205.366 61.3471 210.964 57.8598C209.542 55.5196 208.83 52.9959 208.83 50.2887C208.83 46.8013 210 43.9794 212.341 41.8227C214.681 39.6661 217.962 38.5878 222.183 38.5878C226.45 38.5878 230.603 39.5285 234.641 41.4098V51.8029L227.621 52.2847V48.0861C227.621 46.8013 227.139 45.9983 226.175 45.6771C224.936 45.3101 223.72 45.1265 222.527 45.1265C218.811 45.1265 216.952 46.8931 216.952 50.4263C216.952 55.1066 221.908 61.6454 231.819 70.0424ZM227.208 76.237C221.701 71.5567 217.549 67.3352 214.75 63.5726C211.951 65.5456 210.551 68.2299 210.551 71.6255C210.551 73.9656 211.262 75.8699 212.685 77.3382C214.153 78.7607 216.447 79.4719 219.568 79.4719C222.734 79.4719 225.28 78.3936 227.208 76.237Z" fill="#424040"/>
<path d="M366.842 0C356.303 0.00525484 346.144 3.93759 338.348 11.0295C335.385 13.7063 332.815 16.7885 330.715 20.1846C328.613 16.788 326.043 13.7045 323.081 11.0252C315.284 3.93629 305.125 0.00572508 294.587 0C271.151 0 252.084 19.0668 252.084 42.5028C252.084 58.3224 257.006 70.8097 268.537 84.2618C285.292 103.813 327.697 133.65 329.495 134.912C329.851 135.165 330.278 135.301 330.715 135.301C331.152 135.301 331.578 135.165 331.935 134.912C333.732 133.65 376.137 103.813 392.896 84.2618C404.423 70.8097 409.345 58.3224 409.345 42.5028C409.345 19.0668 390.278 0 366.842 0ZM389.67 81.4991C374.816 98.8233 337.902 125.451 330.715 130.569C323.527 125.451 286.614 98.8233 271.763 81.4991C260.946 68.8801 256.335 57.2173 256.335 42.5028C256.335 21.4087 273.497 4.25028 294.587 4.25028C304.053 4.25028 313.161 7.77376 320.225 14.1747C323.769 17.3796 326.681 21.2201 328.811 25.4974C329.533 26.9425 331.896 26.9425 332.619 25.4974C334.747 21.2208 337.66 17.3815 341.204 14.1789C348.218 7.79527 357.359 4.25524 366.842 4.25028C387.932 4.25028 405.095 21.4087 405.095 42.5028C405.095 57.2173 400.483 68.8801 389.67 81.4991Z" fill="#2F68A6"/>
</svg>
