<svg width="35" height="32" viewBox="0 0 35 32" fill="none" xmlns="http://www.w3.org/2000/svg">
<path d="M2.52093 5.64467L9.33515 10.1875L16.1267 0.680019C16.2767 0.469702 16.4749 0.298269 16.7046 0.179989C16.9343 0.061708 17.1889 0 17.4473 0C17.7057 0 17.9603 0.061708 18.1901 0.179989C18.4198 0.298269 18.6179 0.469702 18.768 0.680019L25.5595 10.1875L32.3737 5.64467C32.6316 5.47309 32.9332 5.37892 33.2429 5.37329C33.5526 5.36767 33.8575 5.45081 34.1214 5.6129C34.3854 5.775 34.5974 6.00926 34.7325 6.28802C34.8676 6.56678 34.92 6.87837 34.8836 7.18598L32.218 29.8465C32.1715 30.2412 31.9818 30.6051 31.6848 30.8691C31.3878 31.1332 31.0043 31.2791 30.6069 31.2791H4.28776C3.89037 31.2791 3.50682 31.1332 3.20986 30.8691C2.91289 30.6051 2.72317 30.2412 2.67668 29.8465L0.011019 7.18436C-0.0249991 6.87688 0.027706 6.56551 0.162912 6.28702C0.298119 6.00852 0.510182 5.77452 0.774068 5.61264C1.03795 5.45076 1.34265 5.36776 1.65218 5.37344C1.96171 5.37911 2.26315 5.47323 2.52093 5.64467ZM17.4473 21.5445C18.3079 21.5445 19.1333 21.2027 19.7418 20.5941C20.3503 19.9856 20.6922 19.1603 20.6922 18.2997C20.6922 17.4391 20.3503 16.6137 19.7418 16.0052C19.1333 15.3967 18.3079 15.0548 17.4473 15.0548C16.5867 15.0548 15.7614 15.3967 15.1529 16.0052C14.5443 16.6137 14.2025 17.4391 14.2025 18.2997C14.2025 19.1603 14.5443 19.9856 15.1529 20.5941C15.7614 21.2027 16.5867 21.5445 17.4473 21.5445Z" fill="#C0C0C0"/>
</svg>
