<svg width="299" height="210" viewBox="0 0 299 210" fill="none" xmlns="http://www.w3.org/2000/svg">
<g clip-path="url(#clip0)">
<path d="M263.989 203.955L258.988 203.954L256.609 184.664L263.99 184.665L263.989 203.955Z" fill="#FFB8B8"/>
<path d="M265.264 208.802L249.139 208.802V208.598C249.139 206.933 249.8 205.337 250.977 204.16C252.154 202.983 253.751 202.321 255.415 202.321H255.416L265.265 202.322L265.264 208.802Z" fill="#2F2E41"/>
<path d="M286.062 191.659L282.816 195.464L266.597 184.752L271.388 179.138L286.062 191.659Z" fill="#FFB8B8"/>
<path d="M290.578 193.836L280.11 206.103L279.955 205.97C278.689 204.89 277.904 203.35 277.772 201.691C277.641 200.032 278.174 198.388 279.254 197.122L279.255 197.121L285.648 189.629L290.578 193.836Z" fill="#2F2E41"/>
<path d="M228.479 109.089L226.922 123.446L289.854 122.548L262.409 77.8298L240.001 77.0249L228.479 109.089Z" fill="#2F2E41"/>
<path opacity="0.28" d="M228.479 109.089L226.922 123.446L289.854 122.548L262.409 77.8298L240.001 77.0249L228.479 109.089Z" fill="black"/>
<path d="M240.854 111.553L238.632 124.69V136.433L256.545 142.28C256.545 142.28 254.448 187.889 257.243 190.794L257.175 197.807L264.989 198.162L265.053 193.227L268.366 156.337L270.317 129.253L267.154 108.718L240.854 111.553Z" fill="#2F2E41"/>
<path d="M254.732 122.862L238.632 136.433C238.632 136.433 237.69 160.917 240.083 163.789C242.138 166.255 268.867 187.528 268.867 187.528C268.867 187.528 273.618 191.885 276.28 191.955C278.943 192.024 282.039 186.44 282.039 186.44L275.873 181.756C275.873 181.756 259.9 166.846 255.157 160.917C253.243 158.525 253.243 158.285 253.243 158.285L253.897 148.335L260.477 129.867L254.732 122.862Z" fill="#2F2E41"/>
<path d="M237.639 57.8571L230.697 57.2156L224.401 58.2649L211.069 58.2692L209.933 67.9321L222.1 70.6547L225.065 69.2016L237.424 73.9105L237.639 57.8571Z" fill="#2F2E41"/>
<path d="M245.929 57.8268C245.929 57.8268 260.661 56.4465 264.011 59.0786C267.361 61.7107 274.539 113.874 274.539 113.874L245.929 115.489L240.8 111.96L242.256 85.9179L245.929 57.8268Z" fill="#CCCCCC"/>
<path d="M250.426 57.502L234.176 57.8586L219.026 126.317L230.99 128.949L250.426 57.502Z" fill="#2F2E41"/>
<path d="M261.978 56.9233L274.778 60.9296L274.051 89.057L289.854 122.685L271.277 124.642L256.593 88.3299L261.978 56.9233Z" fill="#2F2E41"/>
<path d="M283.086 126.101C283.535 125.706 283.891 125.218 284.131 124.67C284.37 124.122 284.487 123.528 284.472 122.931C284.457 122.333 284.311 121.746 284.045 121.211C283.779 120.675 283.399 120.205 282.931 119.832L285.506 110.849L280.428 107.952L276.97 120.69C276.396 121.517 276.146 122.526 276.267 123.525C276.388 124.525 276.871 125.445 277.624 126.112C278.378 126.779 279.351 127.146 280.357 127.144C281.364 127.142 282.335 126.771 283.086 126.101Z" fill="#FFB8B8"/>
<path d="M267.361 61.7107L274.935 61.0538C274.935 61.0538 281.735 68.1655 283.282 73.672C284.828 79.1784 286.503 96.4068 286.503 96.4068L285.805 121.61L276.951 115.598L276.357 93.9197L267.361 61.7107Z" fill="#2F2E41"/>
<path d="M265.534 49.0429C268.378 43.8399 266.466 37.3163 261.263 34.4721C256.06 31.6279 249.536 33.5401 246.692 38.7431C243.848 43.9461 245.76 50.4696 250.963 53.3138C256.166 56.158 262.689 54.2459 265.534 49.0429Z" fill="#FFB8B8"/>
<path d="M254.916 39.4107C253.507 39.0852 252.045 39.4459 250.618 39.6798C249.191 39.9136 247.619 39.9907 246.412 39.1946C245.521 38.6067 244.973 37.6341 244.458 36.6986C244.244 36.3644 244.1 35.9894 244.038 35.5972C243.977 34.9053 244.418 34.274 244.885 33.7603C247.056 31.3739 250.228 30.0677 253.428 29.6528C256.066 29.2596 258.762 29.5888 261.229 30.6054C263.657 31.6706 265.745 33.6213 266.7 36.0955C267.14 37.3618 267.414 38.6795 267.517 40.0161C267.661 40.9994 267.68 41.9972 267.572 42.9852C267.443 43.7177 267.251 44.4375 266.997 45.1363L265.415 49.9124C265.301 50.3637 265.089 50.7842 264.793 51.1435C264.641 51.3195 264.436 51.4415 264.209 51.4913C263.982 51.5411 263.745 51.5159 263.533 51.4196C263.66 50.9008 263.679 50.3617 263.59 49.8352C263.54 49.5728 263.413 49.3313 263.225 49.1417C263.037 48.9521 262.797 48.8231 262.535 48.7714C261.952 48.7095 261.454 49.1614 260.901 49.3561C260.648 49.4311 260.382 49.4556 260.12 49.428C259.857 49.4005 259.603 49.3215 259.371 49.1956C259.138 49.0697 258.934 48.8993 258.767 48.6941C258.601 48.489 258.477 48.2532 258.402 48C258.387 47.949 258.374 47.8975 258.363 47.8454C258.275 47.2993 258.422 46.7148 258.215 46.202C257.973 45.6013 257.33 45.2865 256.846 44.8548C256.406 44.448 256.09 43.9238 255.937 43.3439C255.784 42.7639 255.8 42.1523 255.982 41.5809C256.111 41.1835 256.477 41.0028 256.404 40.5461C256.308 39.9471 255.425 39.5283 254.916 39.4107Z" fill="#2F2E41"/>
<path d="M135.549 84.7957H0V0H135.549V84.7957Z" fill="white"/>
<path d="M135.549 84.7957H0V0H135.549V84.7957ZM0.618948 84.1768H134.93V0.618948H0.618948V84.1768Z" fill="#3F3D56"/>
<path d="M118.993 202.241H41.6242V117.445H118.993V202.241Z" fill="white"/>
<path d="M118.993 202.241H41.6242V117.445H118.993V202.241ZM42.2432 201.622H118.374V118.064H42.2432V201.622Z" fill="#3F3D56"/>
<path d="M108.47 194.232H92.3778V194.885H108.47V194.232Z" fill="#3F3D56"/>
<path d="M108.47 196.19H92.3778V196.842H108.47V196.19Z" fill="#3F3D56"/>
<path d="M108.47 198.147H92.3778V198.799H108.47V198.147Z" fill="#3F3D56"/>
<path d="M80.3083 132.609V139.418C84.3481 139.418 88.2971 140.616 91.656 142.86C95.0149 145.104 97.6328 148.294 99.1788 152.027C100.725 155.759 101.129 159.866 100.341 163.828C99.553 167.79 97.6077 171.429 94.7511 174.286L99.5654 179.1C103.374 175.291 105.968 170.439 107.019 165.156C108.07 159.873 107.53 154.397 105.469 149.421C103.408 144.445 99.9171 140.192 95.4385 137.199C90.96 134.207 85.6946 132.609 80.3083 132.609Z" fill="#E6E6E6"/>
<path d="M99.5655 179.1L94.7512 174.286C91.2592 177.779 86.6195 179.887 81.6918 180.222C76.7642 180.556 71.8824 179.093 67.9508 176.103L63.8299 181.525C69.0729 185.51 75.5822 187.46 82.1525 187.014C88.7228 186.568 94.9089 183.757 99.5655 179.1Z" fill="#575A89"/>
<path d="M59.8831 159.843C59.8831 157.161 60.4114 154.505 61.4379 152.027C62.4644 149.549 63.9689 147.297 65.8655 145.4C67.7622 143.504 70.0139 141.999 72.492 140.973C74.9701 139.946 77.6261 139.418 80.3084 139.418V132.609C74.6073 132.609 69.05 134.398 64.4197 137.724C59.7895 141.051 56.3198 145.746 54.4998 151.149C52.6797 156.551 52.6011 162.389 54.275 167.839C55.9489 173.289 59.2909 178.076 63.8299 181.525L67.9508 176.103C65.4417 174.2 63.4075 171.741 62.0078 168.92C60.6081 166.099 59.8809 162.992 59.8831 159.843Z" fill="#FD719B"/>
<path d="M233.498 149.631H156.129V64.8347H233.498V149.631Z" fill="white"/>
<path d="M233.498 149.631H156.129V64.8347H233.498V149.631ZM156.748 149.012H232.879V65.4537H156.748V149.012Z" fill="#3F3D56"/>
<path d="M181.197 116.672H167.27V138.954H181.197V116.672Z" fill="#575A89"/>
<path d="M201.312 101.507H187.386V138.954H201.312V101.507Z" fill="#E6E6E6"/>
<path d="M221.428 83.8674H207.502V138.954H221.428V83.8674Z" fill="#FD719B"/>
<path d="M226.07 139.573H163.557V74.8926H164.176V138.954H226.07V139.573Z" fill="#3F3D56"/>
<path d="M210.999 67.0922C213.353 67.0922 215.261 65.1839 215.261 62.8298C215.261 60.4757 213.353 58.5674 210.999 58.5674C208.644 58.5674 206.736 60.4757 206.736 62.8298C206.736 65.1839 208.644 67.0922 210.999 67.0922Z" fill="#FFB8B8"/>
<path d="M298.58 209.214H232.157C232.063 209.214 231.972 209.177 231.906 209.11C231.839 209.043 231.802 208.953 231.802 208.859C231.802 208.765 231.839 208.674 231.906 208.608C231.972 208.541 232.063 208.504 232.157 208.504H298.58C298.674 208.504 298.764 208.541 298.831 208.608C298.897 208.674 298.935 208.765 298.935 208.859C298.935 208.953 298.897 209.043 298.831 209.11C298.764 209.177 298.674 209.214 298.58 209.214Z" fill="#CCCCCC"/>
<path d="M116.725 67.0617H18.8246C18.7433 67.0617 18.6654 67.0294 18.6079 66.9719C18.5505 66.9145 18.5182 66.8365 18.5182 66.7553V19.8317C18.5182 19.7505 18.5505 19.6725 18.6079 19.6151C18.6654 19.5576 18.7433 19.5253 18.8246 19.5253C18.9058 19.5253 18.9838 19.5576 19.0412 19.6151C19.0987 19.6725 19.131 19.7505 19.131 19.8317V66.4489H116.725C116.765 66.4488 116.805 66.4566 116.842 66.4719C116.88 66.4873 116.914 66.5098 116.942 66.5383C116.971 66.5667 116.993 66.6006 117.009 66.6378C117.024 66.675 117.032 66.715 117.032 66.7553C117.032 66.7956 117.024 66.8355 117.009 66.8728C116.993 66.91 116.971 66.9438 116.942 66.9723C116.914 67.0008 116.88 67.0233 116.842 67.0386C116.805 67.054 116.765 67.0618 116.725 67.0617Z" fill="#3F3D56"/>
<path d="M39.7416 63.6915H30.8372C30.5961 63.6912 30.3649 63.5953 30.1944 63.4248C30.0239 63.2543 29.928 63.0232 29.9277 62.782V50.5073C29.928 50.2661 30.0239 50.035 30.1944 49.8645C30.3649 49.694 30.5961 49.5981 30.8372 49.5978H39.7416C39.9827 49.5981 40.2139 49.694 40.3844 49.8645C40.5549 50.035 40.6508 50.2661 40.6511 50.5073V62.782C40.6508 63.0232 40.5549 63.2543 40.3844 63.4248C40.2139 63.5953 39.9827 63.6912 39.7416 63.6915Z" fill="#FD719B"/>
<path d="M55.9799 63.6914H47.0755C46.8343 63.6912 46.6032 63.5953 46.4327 63.4248C46.2622 63.2543 46.1662 63.0231 46.166 62.782V38.8647C46.1662 38.6236 46.2622 38.3924 46.4327 38.2219C46.6032 38.0514 46.8343 37.9555 47.0755 37.9553H55.9799C56.221 37.9555 56.4521 38.0514 56.6226 38.2219C56.7931 38.3924 56.8891 38.6236 56.8894 38.8647V62.782C56.8891 63.0231 56.7931 63.2543 56.6226 63.4248C56.4521 63.5953 56.221 63.6912 55.9799 63.6914Z" fill="#FD719B"/>
<path d="M72.2182 63.6915H63.3138C63.0727 63.6912 62.8415 63.5953 62.671 63.4248C62.5005 63.2543 62.4046 63.0232 62.4043 62.782V50.5073C62.4046 50.2661 62.5005 50.035 62.671 49.8645C62.8415 49.694 63.0727 49.5981 63.3138 49.5978H72.2182C72.4593 49.5981 72.6905 49.694 72.861 49.8645C73.0315 50.035 73.1274 50.2661 73.1277 50.5073V62.782C73.1274 63.0232 73.0315 63.2543 72.861 63.4248C72.6905 63.5953 72.4593 63.6912 72.2182 63.6915Z" fill="#FD719B"/>
<path d="M88.4565 63.6914H79.5521C79.3165 63.6965 79.0884 63.608 78.9179 63.4452C78.7475 63.2825 78.6484 63.0588 78.6426 62.8232V34.2277C78.6484 33.9921 78.7475 33.7685 78.9179 33.6057C79.0884 33.443 79.3165 33.3544 79.5521 33.3595H88.4565C88.6921 33.3544 88.9201 33.443 89.0906 33.6057C89.2611 33.7685 89.3601 33.9921 89.366 34.2277V62.8232C89.3601 63.0588 89.2611 63.2825 89.0906 63.4452C88.9201 63.608 88.6921 63.6965 88.4565 63.6914Z" fill="#FD719B"/>
<path d="M104.695 63.6915H95.7904C95.5493 63.6913 95.3181 63.5954 95.1476 63.4249C94.9771 63.2544 94.8812 63.0232 94.8809 62.7821V25.9967C94.8812 25.7556 94.9771 25.5244 95.1476 25.3539C95.3181 25.1834 95.5493 25.0875 95.7904 25.0873H104.695C104.936 25.0875 105.167 25.1834 105.338 25.3539C105.508 25.5244 105.604 25.7556 105.604 25.9967V62.7821C105.604 63.0232 105.508 63.2544 105.338 63.4249C105.167 63.5954 104.936 63.6913 104.695 63.6915Z" fill="#FD719B"/>
<path d="M35.2894 45.9212C36.3046 45.9212 37.1277 45.0982 37.1277 44.0829C37.1277 43.0677 36.3046 42.2446 35.2894 42.2446C34.2741 42.2446 33.4511 43.0677 33.4511 44.0829C33.4511 45.0982 34.2741 45.9212 35.2894 45.9212Z" fill="#3F3D56"/>
<path d="M51.5277 33.9723C52.543 33.9723 53.366 33.1493 53.366 32.134C53.366 31.1188 52.543 30.2957 51.5277 30.2957C50.5124 30.2957 49.6894 31.1188 49.6894 32.134C49.6894 33.1493 50.5124 33.9723 51.5277 33.9723Z" fill="#3F3D56"/>
<path d="M67.766 45.9212C68.7812 45.9212 69.6043 45.0982 69.6043 44.0829C69.6043 43.0677 68.7812 42.2446 67.766 42.2446C66.7507 42.2446 65.9277 43.0677 65.9277 44.0829C65.9277 45.0982 66.7507 45.9212 67.766 45.9212Z" fill="#3F3D56"/>
<path d="M84.0043 28.151C85.0196 28.151 85.8426 27.328 85.8426 26.3127C85.8426 25.2975 85.0196 24.4744 84.0043 24.4744C82.989 24.4744 82.166 25.2975 82.166 26.3127C82.166 27.328 82.989 28.151 84.0043 28.151Z" fill="#3F3D56"/>
<path d="M100.243 21.4107C101.258 21.4107 102.081 20.5876 102.081 19.5724C102.081 18.5571 101.258 17.7341 100.243 17.7341C99.2273 17.7341 98.4043 18.5571 98.4043 19.5724C98.4043 20.5876 99.2273 21.4107 100.243 21.4107Z" fill="#3F3D56"/>
<path d="M67.8046 44.4948L51.5278 32.3032L35.473 44.3282L35.1057 43.8377L51.5278 31.5374L67.7271 43.6711L83.8253 26.0548L83.8899 26.0285L100.128 19.4857L100.357 20.0544L84.1833 26.5709L67.8046 44.4948Z" fill="#3F3D56"/>
</g>
<defs>
<clipPath id="clip0">
<rect width="298.935" height="209.214" fill="white"/>
</clipPath>
</defs>
</svg>
