<svg width="311" height="263" viewBox="0 0 311 263" fill="none" xmlns="http://www.w3.org/2000/svg">
<g clip-path="url(#clip0)">
<path d="M306.349 89.7428C306.713 91.1667 307.055 92.5979 307.373 94.0363H198.959V89.7428H306.349Z" fill="#E6E6E6"/>
<path d="M302.893 78.4251C301.148 73.4961 299.112 68.6747 296.798 63.986C296.086 62.5403 295.346 61.1092 294.579 59.6925C294.454 59.4494 294.319 59.2062 294.184 58.9631V90.9149H303.553V80.3265L302.893 78.4251Z" fill="#E6E6E6"/>
<path d="M296.798 63.9859H294.184V59.6924H294.58C295.348 61.1076 296.087 62.5388 296.798 63.9859Z" fill="#CCCCCC"/>
<path d="M302.893 78.4252H294.184V82.7187H303.553V80.3266L302.893 78.4252Z" fill="#CCCCCC"/>
<path d="M289.111 53.8391H279.745V90.9153H289.111V53.8391Z" fill="#E6E6E6"/>
<path d="M289.111 59.6934H279.745V63.9864H289.111V59.6934Z" fill="#CCCCCC"/>
<path d="M289.111 78.4265H279.745V82.7196H289.111V78.4265Z" fill="#CCCCCC"/>
<path d="M246.396 53.6233H212.794C212.276 53.6241 211.78 53.8301 211.414 54.1963C211.048 54.5625 210.842 55.059 210.841 55.5769V89.1783C210.841 89.3694 210.869 89.5594 210.923 89.7427C211.045 90.1441 211.293 90.4959 211.63 90.746C211.966 90.9961 212.375 91.1314 212.794 91.1319H246.396C246.815 91.1314 247.224 90.9961 247.56 90.746C247.897 90.4959 248.145 90.1442 248.267 89.7427C248.321 89.5594 248.349 89.3694 248.349 89.1783V55.5769C248.348 55.059 248.142 54.5625 247.776 54.1963C247.41 53.8301 246.914 53.6241 246.396 53.6233Z" fill="#E6E6E6"/>
<path d="M244.008 56.0111H215.182C214.664 56.0119 214.168 56.218 213.801 56.5842C213.435 56.9504 213.229 57.4468 213.228 57.9647V86.7907C213.229 87.3086 213.435 87.805 213.801 88.1712C214.168 88.5374 214.664 88.7435 215.182 88.7443H244.008C244.526 88.7435 245.022 88.5374 245.388 88.1712C245.755 87.805 245.961 87.3086 245.962 86.7907V57.9647C245.961 57.4468 245.755 56.9504 245.388 56.5842C245.022 56.218 244.526 56.0119 244.008 56.0111Z" fill="white"/>
<path d="M238.981 61.0383H220.209C219.691 61.0391 219.195 61.2452 218.829 61.6114C218.462 61.9776 218.256 62.474 218.256 62.9919V81.7635C218.256 82.2814 218.462 82.7779 218.829 83.1441C219.195 83.5103 219.691 83.7163 220.209 83.7171H238.981C239.498 83.7144 239.994 83.5078 240.359 83.142C240.725 82.7762 240.932 82.2808 240.935 81.7635V62.9919C240.934 62.474 240.728 61.9776 240.361 61.6114C239.995 61.2452 239.499 61.0391 238.981 61.0383Z" fill="#CCCCCC"/>
<path d="M237.824 78.4526L233.859 71.5851C233.783 71.4532 233.673 71.3435 233.541 71.2673C233.409 71.1911 233.259 71.151 233.107 71.151C232.954 71.151 232.805 71.1911 232.673 71.2673C232.541 71.3435 232.431 71.4532 232.355 71.5851L229.46 76.5998L225.663 70.0239C225.586 69.892 225.477 69.7824 225.345 69.7062C225.213 69.63 225.063 69.5898 224.911 69.5898C224.758 69.5898 224.609 69.63 224.477 69.7062C224.345 69.7824 224.235 69.892 224.159 70.024L220.194 76.8915L215.477 85.0613H224.574L223.673 86.6224H242.541L237.824 78.4526Z" fill="white"/>
<path d="M236.424 67.889C237.933 67.889 239.156 66.6659 239.156 65.1571C239.156 63.6483 237.933 62.4252 236.424 62.4252C234.915 62.4252 233.692 63.6483 233.692 65.1571C233.692 66.6659 234.915 67.889 236.424 67.889Z" fill="white"/>
<path d="M310.495 120.079C310.464 118.395 310.398 116.719 310.295 115.052C310.252 114.253 310.199 113.459 310.134 112.665H291.805C291.288 112.665 290.791 112.871 290.425 113.238C290.059 113.604 289.853 114.1 289.852 114.618V148.22C289.851 148.373 289.87 148.527 289.908 148.675C290.011 149.102 290.254 149.481 290.598 149.752C290.942 150.024 291.367 150.172 291.805 150.173H308.702C308.788 149.678 308.871 149.175 308.945 148.675C308.992 148.38 309.04 148.081 309.084 147.785C309.188 147.078 309.288 146.37 309.379 145.663C309.509 144.699 309.626 143.731 309.731 142.758C310.112 139.272 310.359 135.749 310.469 132.187V132.183C310.508 130.841 310.528 129.494 310.529 128.141V122.932C310.529 121.977 310.521 121.026 310.495 120.079Z" fill="#E6E6E6"/>
<path d="M310.495 120.079C310.464 118.395 310.398 116.719 310.295 115.052H294.193C293.675 115.053 293.179 115.259 292.813 115.625C292.446 115.991 292.24 116.488 292.24 117.006V145.832C292.24 146.35 292.446 146.846 292.813 147.212C293.179 147.579 293.675 147.785 294.193 147.785H309.084C309.188 147.078 309.288 146.37 309.379 145.663C309.509 144.699 309.626 143.731 309.731 142.758C310.113 139.272 310.359 135.749 310.469 132.187V132.183C310.508 130.841 310.528 129.494 310.529 128.141V122.932C310.529 121.977 310.521 121.026 310.495 120.079Z" fill="white"/>
<path d="M310.495 120.079H299.22C298.702 120.08 298.206 120.286 297.84 120.653C297.474 121.019 297.268 121.515 297.267 122.033V140.805C297.268 141.323 297.474 141.819 297.84 142.185C298.206 142.551 298.702 142.757 299.22 142.758H309.731C310.113 139.272 310.359 135.749 310.469 132.187V132.183C310.508 130.841 310.528 129.494 310.529 128.141V122.932C310.529 121.977 310.521 121.026 310.495 120.079Z" fill="#CCCCCC"/>
<path d="M310.469 132.187C310.36 135.747 310.114 139.271 309.731 142.758C309.626 143.731 309.509 144.699 309.379 145.663H302.685L303.588 144.104H294.488L297.267 139.29L299.203 135.934L303.171 129.066C303.246 128.933 303.356 128.823 303.488 128.747C303.62 128.67 303.769 128.63 303.922 128.63C304.074 128.63 304.224 128.67 304.356 128.747C304.488 128.823 304.597 128.933 304.673 129.066L308.472 135.643L310.469 132.187Z" fill="white"/>
<path d="M277.575 35.1077H198.959V30.8142H273.676C275.005 32.2164 276.304 33.6476 277.575 35.1077Z" fill="#E6E6E6"/>
<path d="M240.717 5.33118C243.921 7.09373 247.044 8.98218 250.086 10.9965V31.9822H240.717V5.33118Z" fill="#E6E6E6"/>
<path d="M250.084 19.4949H240.717V23.7879H250.084V19.4949Z" fill="#CCCCCC"/>
<path d="M264.525 22.0233V31.9821H255.156V14.5259C257.34 16.1191 259.475 17.7761 261.56 19.4966C262.558 20.3215 263.547 21.1637 264.525 22.0233Z" fill="#E6E6E6"/>
<path d="M264.525 22.0232V23.7858H255.156V19.4966H261.56C262.558 20.3214 263.547 21.1636 264.525 22.0232Z" fill="#CCCCCC"/>
<path d="M231.154 0.547004C233.632 1.66268 236.069 2.85219 238.464 4.11553L236.537 8.0053L230.133 20.9466L228.228 24.793L225.245 30.8143L224.589 32.1384L221.92 30.8143L216.198 27.9795L219.831 20.6341H219.836L221.737 16.7877L228.145 3.84636L230.029 0.0434153L230.051 0L231.154 0.547004Z" fill="#E6E6E6"/>
<path d="M238.442 4.15459L236.537 8.0053L228.145 3.84636L230.029 0.0434127L230.051 0L231.154 0.547L238.442 4.15459Z" fill="#CCCCCC"/>
<path d="M221.738 16.7889L219.833 20.6362L228.227 24.7921L230.132 20.9448L221.738 16.7889Z" fill="#CCCCCC"/>
<path d="M308.945 148.675C308.871 149.175 308.788 149.678 308.702 150.173C308.55 151.111 308.385 152.04 308.207 152.969H198.959V148.675H308.945Z" fill="#E6E6E6"/>
<path d="M250.084 112.771H240.717V149.847H250.084V112.771Z" fill="#E6E6E6"/>
<path d="M250.084 118.625H240.717V122.918H250.084V118.625Z" fill="#CCCCCC"/>
<path d="M250.084 137.358H240.717V141.651H250.084V137.358Z" fill="#CCCCCC"/>
<path d="M264.524 112.771H255.157V149.847H264.524V112.771Z" fill="#E6E6E6"/>
<path d="M264.524 118.625H255.157V122.918H264.524V118.625Z" fill="#CCCCCC"/>
<path d="M264.524 137.358H255.157V141.651H264.524V137.358Z" fill="#CCCCCC"/>
<path d="M232.647 112.618L216.196 145.844L224.59 150L241.041 116.773L232.647 112.618Z" fill="#E6E6E6"/>
<path d="M230.049 117.864L228.145 121.711L236.539 125.867L238.443 122.02L230.049 117.864Z" fill="#CCCCCC"/>
<path d="M221.737 134.652L219.833 138.5L228.227 142.655L230.132 138.808L221.737 134.652Z" fill="#CCCCCC"/>
<path d="M127.112 165.221C127.503 165.446 127.876 165.702 128.227 165.986L166.877 153.958L169.057 144.369L183.958 145.767L181.749 163.117C181.571 164.519 180.943 165.825 179.959 166.839C178.975 167.853 177.689 168.521 176.293 168.742L130.808 175.943C130.145 177.551 129.007 178.92 127.547 179.866C126.087 180.812 124.373 181.291 122.634 181.239C120.895 181.188 119.213 180.608 117.811 179.577C116.41 178.546 115.356 177.113 114.788 175.468C114.221 173.823 114.168 172.045 114.637 170.369C115.105 168.693 116.072 167.2 117.41 166.088C118.748 164.975 120.393 164.296 122.126 164.142C123.859 163.987 125.598 164.363 127.112 165.221Z" fill="#FFB8B8"/>
<path d="M190.845 151.519L190.589 147.143V147.139L190.519 145.94L189.764 133.056C189.99 130.369 189.142 127.703 187.407 125.641C185.671 123.578 183.189 122.287 180.504 122.05C179.731 121.981 178.954 122.002 178.186 122.111C175.905 122.434 173.8 123.517 172.212 125.186C170.624 126.855 169.647 129.012 169.438 131.306L167.871 137.827L165.131 149.231C164.937 150.029 165.018 150.869 165.36 151.616C165.702 152.362 166.285 152.972 167.016 153.347C167.438 153.569 167.9 153.704 168.374 153.746L172.941 154.154L177.339 154.545L182.414 154.996L182.779 155.027L183.716 155.114L186.855 155.391H186.864C187.388 155.434 187.915 155.364 188.411 155.188C188.906 155.011 189.359 154.731 189.738 154.367C190.014 154.098 190.247 153.787 190.428 153.446C190.745 152.856 190.889 152.188 190.845 151.519V151.519Z" fill="#FD719B"/>
<path d="M233.257 98.4568C233.257 113.315 219.518 111.068 202.571 111.068C185.623 111.068 171.885 113.315 171.885 98.4568C171.885 83.5986 178.596 57.2615 202.571 57.2615C227.372 57.2615 233.257 83.5986 233.257 98.4568Z" fill="#2F2E41"/>
<path d="M217.069 104.995C225.133 96.9309 225.133 83.8567 217.069 75.7928C209.005 67.7289 195.931 67.7289 187.867 75.7928C179.803 83.8567 179.803 96.9309 187.867 104.995C195.931 113.059 209.005 113.059 217.069 104.995Z" fill="#FFB8B8"/>
<path d="M231.535 119.724C231.138 119.341 230.716 118.984 230.272 118.656C227.465 116.535 223.937 115.601 220.448 116.055L182.397 120.87C178.911 121.302 175.731 123.075 173.531 125.813C171.331 128.551 170.283 132.037 170.61 135.534C170.719 136.75 170.84 138.031 170.975 139.363C171.149 141.035 171.344 142.789 171.57 144.603C171.943 147.655 172.399 150.876 172.941 154.154C173.415 156.976 173.953 159.837 174.569 162.663C174.748 163.479 174.933 164.292 175.125 165.103C175.125 165.105 175.125 165.108 175.126 165.11C175.127 165.112 175.128 165.114 175.13 165.116C175.151 165.216 175.173 165.316 175.199 165.411C175.198 165.419 175.199 165.426 175.203 165.433C175.472 166.561 175.755 167.677 176.05 168.78C176.163 169.188 176.271 169.592 176.384 169.991C176.688 171.076 177.009 172.14 177.339 173.186C179.818 180.97 183.096 187.599 187.424 191.124C187.48 191.176 187.537 191.22 187.598 191.268L187.771 191.402L188.023 191.324L189.091 191.007L190.003 190.729L201.88 187.156L204.837 186.267L214.336 183.406H214.34L223.027 180.792L224.086 180.471L231.549 178.226L231.787 175.439L232.109 171.741L232.3 169.518L233.81 151.988L234.692 141.76L235.647 130.655C235.824 128.641 235.547 126.613 234.835 124.721C234.124 122.829 232.996 121.121 231.535 119.724Z" fill="#2F2E41"/>
<path d="M252.812 204.548C252.712 204.257 252.617 203.966 252.517 203.679C248.054 190.656 241.473 180.805 231.787 175.439C231.783 175.439 231.783 175.435 231.779 175.435L231.614 175.344L223.174 178.266L222.132 178.626L221.047 179.004L221.034 179.008L213.133 181.743L213.12 181.747L206.921 183.892H206.916L201.181 185.876H201.177L199.844 186.34L189.82 189.809L188.657 190.213L187.615 190.573L187.454 190.629L187.424 191.124L186.708 203.679L186.66 204.548L185.766 220.215L156.067 262.286H176.384C183.192 262.288 189.99 261.77 196.719 260.737L215.781 240.194C215.941 240.028 216.143 239.91 216.365 239.851C216.587 239.792 216.821 239.794 217.042 239.859C217.263 239.923 217.462 240.047 217.618 240.216C217.773 240.385 217.88 240.594 217.926 240.819L220.726 254.711C234.521 249.833 247.425 242.732 258.929 233.691C257.592 222.902 255.638 213.07 252.812 204.548Z" fill="#2F2E41"/>
<path d="M178.61 88.3681H186.777L190.38 78.2795L191.101 88.3681H195.004L197.106 82.4831L197.527 88.3681H226.531C226.531 85.4976 225.966 82.6552 224.868 80.0031C223.769 77.3511 222.159 74.9414 220.129 72.9117C218.099 70.8819 215.69 69.2718 213.038 68.1733C210.386 67.0748 207.543 66.5094 204.673 66.5094H200.469C194.672 66.5094 189.112 68.8124 185.013 72.9117C180.913 77.011 178.61 82.5708 178.61 88.3681Z" fill="#2F2E41"/>
<path d="M128.375 197.77C127.042 198.33 125.602 198.591 124.157 198.535C122.712 198.478 121.297 198.105 120.011 197.443C118.726 196.78 117.601 195.844 116.716 194.7C115.832 193.555 115.209 192.231 114.892 190.82L79.9594 186.864L91.6691 172.841L123.046 178.748C125.452 178.372 127.912 178.892 129.96 180.208C132.009 181.525 133.503 183.547 134.16 185.892C134.817 188.237 134.591 190.741 133.524 192.93C132.458 195.119 130.626 196.841 128.375 197.77L128.375 197.77Z" fill="#A0616A"/>
<path d="M109.542 171.814L94.7768 169.175L93.7046 168.984C92.8478 168.831 92.033 168.498 91.3138 168.008C90.5946 167.518 89.9873 166.881 89.5318 166.139C89.0763 165.397 88.7829 164.568 88.6708 163.704C88.5587 162.841 88.6305 161.964 88.8815 161.131L96.1313 137.041L96.3484 136.325C97.2536 133.263 97.0924 129.984 95.8912 127.026C94.6901 124.068 92.5201 121.605 89.7366 120.04C87.8525 118.994 85.7524 118.397 83.5997 118.294C81.447 118.192 79.2997 118.587 77.3248 119.45C75.3499 120.313 73.6006 121.619 72.2129 123.268C70.8253 124.917 69.8366 126.864 69.324 128.957L60.0772 166.696L59.7342 168.094C59.0884 170.727 59.0179 173.469 59.5277 176.132C60.0375 178.795 61.1155 181.317 62.6883 183.525C64.2611 185.734 66.2916 187.577 68.6414 188.93C70.9912 190.282 73.6051 191.112 76.3048 191.363C76.3351 191.368 76.3612 191.368 76.3917 191.372L81.9268 191.862L89.1071 192.501L98.1371 193.304L106.564 194.055C107.667 194.155 108.768 193.836 109.648 193.162C110.528 192.489 111.122 191.508 111.313 190.417C111.326 190.356 111.334 190.295 111.343 190.234L113.132 176.881L113.149 176.759C113.303 175.629 113.014 174.482 112.341 173.56C111.669 172.638 110.665 172.013 109.542 171.814Z" fill="#CCCCCC"/>
<path d="M86.7941 70.6331C80.9 82.2212 76.2548 94.1733 63.2539 94.1733C57.0107 94.1733 51.0232 91.6932 46.6085 87.2785C42.1939 82.8639 39.7138 76.8764 39.7138 70.6331C39.7138 57.6323 50.254 47.2557 63.2539 47.093C76.4665 46.9275 97.7645 49.0641 86.7941 70.6331Z" fill="#2F2E41"/>
<path d="M101.58 222.23L101.046 216.899L100.646 216.92L30.4522 220.302L30.6345 225.698L30.943 234.941C41.8044 243.215 53.8661 249.781 66.7105 254.411L67.1665 250.878C67.2063 250.59 67.3445 250.324 67.5575 250.127C67.7705 249.929 68.0454 249.811 68.3355 249.792C68.6256 249.774 68.9132 249.856 69.1495 250.026C69.3858 250.195 69.5563 250.441 69.6322 250.721L71.017 255.883C82.2061 259.492 93.8254 261.595 105.569 262.139L101.58 222.23Z" fill="#2F2E41"/>
<path d="M79.0134 88.5838C87.0773 80.5199 87.0773 67.4457 79.0134 59.3818C70.9495 51.3179 57.8753 51.3179 49.8114 59.3818C41.7475 67.4457 41.7475 80.5199 49.8114 88.5838C57.8753 96.6477 70.9495 96.6477 79.0134 88.5838Z" fill="#A0616A"/>
<path d="M105.613 217.259L101.519 204.548L101.449 204.331L101.241 203.679L100.073 200.059C99.6955 198.882 99.3351 197.701 99.0008 196.516C98.6926 195.448 98.4047 194.377 98.137 193.304C97.755 191.81 97.4077 190.311 97.0952 188.806C96.0357 183.749 95.3293 178.624 94.9809 173.468C94.8853 172.04 94.8173 170.609 94.7768 169.175C94.5225 160.385 95.3139 151.596 97.1342 142.993C98.7188 135.553 97.8724 127.801 94.7196 120.879C91.5668 113.957 86.2743 108.23 79.6215 104.542C75.2561 102.129 70.4243 100.68 65.4516 100.292C65.1086 100.266 64.7656 100.244 64.4184 100.223C59.1655 99.8906 53.9051 100.743 49.0256 102.716C44.146 104.689 39.7719 107.733 36.2262 111.623C34.3271 113.691 32.6776 115.976 31.3117 118.43C27.522 125.258 26.0994 133.148 27.2658 140.87L32.1452 173.633L31.0341 187.426L29.723 203.679L29.6535 204.548L28.2555 221.878C28.1893 222.686 28.3849 223.493 28.8133 224.181C29.2418 224.87 29.8803 225.401 30.6345 225.698C31.0762 225.875 31.548 225.965 32.0238 225.963C32.0933 225.963 32.1584 225.963 32.2279 225.959L101.58 222.23L102.214 222.195C102.792 222.165 103.356 222.002 103.861 221.719C104.367 221.437 104.801 221.042 105.129 220.564C105.458 220.087 105.672 219.541 105.756 218.968C105.84 218.395 105.791 217.81 105.613 217.259L105.613 217.259Z" fill="#CCCCCC"/>
<path d="M86.3242 62.3131C81.6056 65.5653 76.005 67.2962 70.2742 67.2733C72.3185 68.6907 74.6457 69.6481 77.0955 70.0796C69.4761 71.714 61.6013 71.7583 53.964 70.2096C52.2664 69.9374 50.6283 69.3748 49.1216 68.5464C47.6552 67.6563 46.4285 66.2388 46.1327 64.5491C45.6252 61.6498 47.8843 59.0158 50.2321 57.2406C53.8266 54.5641 57.9711 52.7201 62.3658 51.842C66.7604 50.9638 71.2953 51.0734 75.6424 52.1629C78.4809 52.8967 81.3244 54.1363 83.1681 56.4159C85.0118 58.6954 85.5579 62.2097 83.8013 64.557L86.3242 62.3131Z" fill="#2F2E41"/>
<path d="M87.3799 193.474C86.0589 194.063 84.625 194.355 83.1789 194.33C81.7329 194.305 80.31 193.963 79.0104 193.328C77.7108 192.694 76.5661 191.782 75.6571 190.657C74.748 189.532 74.0966 188.222 73.7488 186.818L38.7391 183.619L50.1425 169.346L81.64 174.572C84.0371 174.144 86.5079 174.61 88.5842 175.882C90.6605 177.154 92.1981 179.144 92.9056 181.474C93.6131 183.804 93.4414 186.312 92.423 188.524C91.4045 190.736 89.6102 192.497 87.3799 193.474L87.3799 193.474Z" fill="#A0616A"/>
<path d="M67.9913 167.933L60.0772 166.696L52.0935 165.446C51.2337 165.311 50.412 164.997 49.6825 164.522C48.9529 164.048 48.332 163.424 47.8605 162.693C47.389 161.961 47.0776 161.139 46.9467 160.278C46.8158 159.418 46.8684 158.54 47.1011 157.701L54.0297 132.739C54.8682 129.658 54.6359 126.384 53.3708 123.452C52.1058 120.521 49.883 118.106 47.0663 116.602C45.1636 115.587 43.0505 115.029 40.8946 114.973C38.7388 114.916 36.5994 115.362 34.646 116.277C32.6867 117.176 30.963 118.518 29.6107 120.198C28.2585 121.877 27.3145 123.847 26.8533 125.953L18.1144 165.289C17.5257 167.943 17.5172 170.692 18.0895 173.349C18.6617 176.006 19.8012 178.508 21.43 180.684C23.0588 182.86 25.1385 184.658 27.5266 185.956C29.9148 187.254 32.5551 188.02 35.2669 188.203L65.4951 190.23C66.6004 190.305 67.6937 189.963 68.5588 189.271C69.4238 188.579 69.9974 187.587 70.1662 186.492C70.1793 186.431 70.1835 186.371 70.1923 186.31L71.6901 172.921L71.703 172.8C71.8321 171.666 71.5179 170.527 70.8261 169.62C70.1343 168.713 69.1185 168.109 67.9913 167.933Z" fill="#CCCCCC"/>
<path d="M201.909 147.182L200.098 148.17L177.779 160.348L175.967 161.337C175.088 161.817 174.436 162.627 174.153 163.589C173.87 164.55 173.981 165.584 174.46 166.464L191.08 196.926C191.561 197.805 192.371 198.458 193.332 198.74C194.294 199.023 195.328 198.912 196.208 198.434L196.213 198.431L222.146 184.281L222.15 184.279C223.029 183.798 223.682 182.988 223.964 182.027C224.247 181.065 224.137 180.031 223.658 179.151L207.037 148.689C206.556 147.81 205.746 147.158 204.785 146.875C203.824 146.593 202.79 146.703 201.909 147.182Z" fill="#E6E6E6"/>
<path d="M202.431 148.137L200.285 149.308L178.634 161.121L176.488 162.292C175.862 162.634 175.398 163.211 175.196 163.895C174.995 164.58 175.074 165.316 175.415 165.943L192.035 196.405C192.378 197.031 192.954 197.495 193.639 197.697C194.324 197.898 195.06 197.819 195.687 197.478L195.692 197.476L221.625 183.326L221.629 183.324C222.255 182.981 222.72 182.404 222.921 181.72C223.122 181.035 223.044 180.299 222.703 179.672L206.082 149.21C205.74 148.584 205.163 148.12 204.478 147.918C203.794 147.717 203.057 147.796 202.431 148.137Z" fill="white"/>
<path d="M203.04 156.737C202.959 156.591 202.824 156.482 202.664 156.435C202.504 156.388 202.331 156.406 202.184 156.485L201.32 156.959L192.512 161.764C192.366 161.845 192.258 161.98 192.212 162.14C192.165 162.3 192.184 162.471 192.263 162.618C192.343 162.764 192.477 162.873 192.637 162.92C192.797 162.968 192.969 162.95 193.115 162.871L202.788 157.592C202.934 157.512 203.042 157.377 203.089 157.217C203.137 157.056 203.119 156.884 203.04 156.737Z" fill="#E6E6E6"/>
<path d="M206.335 157.358C206.295 157.286 206.242 157.222 206.178 157.17C206.114 157.118 206.04 157.08 205.961 157.057C205.882 157.034 205.799 157.027 205.717 157.036C205.635 157.045 205.556 157.07 205.484 157.111L193.532 163.631C193.46 163.671 193.396 163.724 193.344 163.789C193.292 163.853 193.254 163.927 193.23 164.006C193.207 164.085 193.2 164.168 193.209 164.25C193.218 164.332 193.243 164.412 193.282 164.484C193.322 164.557 193.375 164.62 193.44 164.672C193.504 164.724 193.578 164.762 193.657 164.786C193.736 164.809 193.819 164.816 193.901 164.807C193.984 164.798 194.063 164.773 194.135 164.734L194.691 164.43L198.169 162.533H198.173L206.083 158.213C206.156 158.174 206.221 158.121 206.273 158.057C206.325 157.992 206.364 157.918 206.388 157.838C206.411 157.759 206.419 157.675 206.41 157.593C206.4 157.51 206.375 157.43 206.335 157.358Z" fill="#E6E6E6"/>
<path d="M193.345 167.751L189.551 160.792C189.512 160.722 189.446 160.671 189.369 160.649C189.292 160.627 189.209 160.636 189.139 160.675L187.298 161.678L186.343 162.199L181.216 164.994L180.222 165.537C180.152 165.577 180.1 165.642 180.078 165.719C180.057 165.796 180.066 165.879 180.105 165.949L180.348 166.397L183.899 172.909C183.937 172.978 184.002 173.029 184.079 173.051C184.155 173.073 184.237 173.064 184.307 173.026L190.428 169.687L191.383 169.166L193.224 168.164C193.259 168.145 193.29 168.119 193.315 168.088C193.341 168.057 193.359 168.021 193.371 167.983C193.382 167.944 193.386 167.904 193.381 167.864C193.377 167.825 193.365 167.786 193.345 167.751Z" fill="#E6E6E6"/>
<path d="M207.837 165.567C207.757 165.421 207.623 165.313 207.463 165.266C207.304 165.218 207.132 165.236 206.986 165.316L193.866 172.474C193.75 172.538 193.658 172.636 193.601 172.755C193.544 172.874 193.526 173.009 193.549 173.138C193.559 173.206 193.581 173.271 193.615 173.33C193.648 173.389 193.69 173.444 193.741 173.49L193.745 173.494C193.842 173.582 193.964 173.637 194.094 173.653C194.223 173.668 194.355 173.643 194.47 173.581L207.589 166.423C207.662 166.383 207.726 166.329 207.777 166.264C207.829 166.2 207.868 166.126 207.891 166.046C207.914 165.967 207.921 165.884 207.911 165.801C207.902 165.719 207.877 165.64 207.837 165.567Z" fill="#E6E6E6"/>
<path d="M211.136 166.188C211.096 166.116 211.042 166.052 210.978 166C210.913 165.949 210.839 165.91 210.76 165.887C210.68 165.864 210.597 165.857 210.515 165.866C210.433 165.876 210.353 165.901 210.281 165.941L194.882 174.341C194.766 174.402 194.673 174.499 194.616 174.617C194.559 174.735 194.541 174.868 194.565 174.997V175.001C194.575 175.068 194.597 175.133 194.63 175.192C194.664 175.254 194.708 175.31 194.761 175.357C194.857 175.446 194.979 175.503 195.109 175.518C195.239 175.534 195.371 175.508 195.486 175.444L210.884 167.043C211.031 166.963 211.139 166.828 211.186 166.668C211.234 166.507 211.215 166.335 211.136 166.188Z" fill="#E6E6E6"/>
<path d="M189.472 179.442C190.947 179.442 192.142 178.247 192.142 176.772C192.142 175.298 190.947 174.102 189.472 174.102C187.998 174.102 186.802 175.298 186.802 176.772C186.802 178.247 187.998 179.442 189.472 179.442Z" fill="#E6E6E6"/>
<path d="M209.724 135.46L207.912 136.449L185.593 148.627L183.781 149.615C182.902 150.096 182.25 150.906 181.967 151.867C181.685 152.829 181.795 153.863 182.274 154.743L198.894 185.205C199.375 186.084 200.185 186.736 201.147 187.019C202.108 187.301 203.142 187.191 204.022 186.712L204.027 186.71L229.96 172.56L229.965 172.557C230.844 172.076 231.496 171.267 231.779 170.305C232.061 169.344 231.951 168.31 231.472 167.43L214.851 136.968C214.371 136.089 213.561 135.436 212.599 135.154C211.638 134.871 210.604 134.982 209.724 135.46Z" fill="#CCCCCC"/>
<path d="M210.245 136.416L208.099 137.586L186.448 149.4L184.302 150.57C183.676 150.913 183.212 151.49 183.011 152.174C182.809 152.859 182.888 153.595 183.229 154.222L199.85 184.684C200.192 185.31 200.769 185.774 201.453 185.975C202.138 186.177 202.874 186.098 203.501 185.757L203.506 185.755L229.439 171.605L229.444 171.602C230.07 171.26 230.534 170.683 230.735 169.999C230.937 169.314 230.858 168.578 230.517 167.951L213.896 137.489C213.554 136.863 212.977 136.399 212.293 136.197C211.608 135.996 210.872 136.075 210.245 136.416Z" fill="white"/>
<path d="M210.854 145.016C210.773 144.87 210.638 144.761 210.478 144.714C210.318 144.667 210.146 144.685 209.999 144.764L205.544 147.195L204.303 147.872L200.326 150.043C200.181 150.124 200.073 150.259 200.026 150.418C199.979 150.578 199.998 150.75 200.078 150.896C200.157 151.043 200.292 151.151 200.451 151.199C200.611 151.246 200.783 151.229 200.93 151.15L205.618 148.593L206.599 148.055L210.602 145.871C210.748 145.79 210.857 145.655 210.904 145.495C210.951 145.335 210.933 145.163 210.854 145.016Z" fill="#CCCCCC"/>
<path d="M214.149 145.637C214.11 145.564 214.056 145.5 213.992 145.448C213.928 145.397 213.854 145.358 213.775 145.335C213.696 145.312 213.613 145.305 213.531 145.314C213.449 145.324 213.37 145.349 213.298 145.389L207.086 148.78L206.13 149.301L201.346 151.91C201.274 151.949 201.21 152.003 201.158 152.067C201.107 152.131 201.068 152.205 201.045 152.285C201.022 152.364 201.014 152.447 201.023 152.529C201.032 152.611 201.057 152.69 201.097 152.763C201.136 152.835 201.19 152.899 201.254 152.951C201.318 153.002 201.392 153.041 201.472 153.064C201.551 153.087 201.634 153.095 201.716 153.086C201.798 153.077 201.877 153.052 201.95 153.012L206.734 150.403L207.689 149.882L213.897 146.492C213.97 146.453 214.035 146.399 214.087 146.335C214.14 146.271 214.179 146.197 214.202 146.117C214.226 146.037 214.233 145.954 214.224 145.871C214.215 145.789 214.189 145.709 214.149 145.637Z" fill="#CCCCCC"/>
<path d="M201.16 156.03L198.134 150.482L197.613 149.526L197.365 149.071C197.326 149.001 197.261 148.949 197.183 148.927C197.106 148.905 197.023 148.915 196.953 148.953L190.81 152.305L188.036 153.816C187.966 153.855 187.915 153.921 187.893 153.998C187.871 154.075 187.88 154.158 187.919 154.228L188.166 154.68L188.435 155.179L188.687 155.635V155.639L191.713 161.187C191.752 161.257 191.816 161.308 191.893 161.33C191.969 161.352 192.051 161.343 192.121 161.304L201.038 156.442C201.073 156.423 201.104 156.397 201.13 156.366C201.155 156.335 201.174 156.3 201.185 156.261C201.196 156.223 201.2 156.183 201.196 156.143C201.191 156.103 201.179 156.065 201.16 156.03Z" fill="#FD719B"/>
<path d="M215.651 153.846C215.571 153.7 215.437 153.591 215.277 153.544C215.118 153.497 214.946 153.515 214.8 153.594L210.88 155.734L209.925 156.255L206.139 158.317L201.681 160.753C201.608 160.792 201.544 160.846 201.492 160.91C201.44 160.975 201.401 161.049 201.378 161.128C201.354 161.208 201.347 161.291 201.355 161.373C201.364 161.456 201.389 161.535 201.429 161.608C201.468 161.681 201.522 161.745 201.586 161.797C201.651 161.849 201.725 161.888 201.804 161.911C201.884 161.935 201.967 161.942 202.049 161.933C202.132 161.924 202.211 161.9 202.284 161.86L210.528 157.362L211.483 156.841L215.403 154.701C215.476 154.661 215.54 154.608 215.592 154.543C215.643 154.479 215.682 154.404 215.705 154.325C215.728 154.245 215.735 154.162 215.726 154.08C215.716 153.998 215.691 153.918 215.651 153.846Z" fill="#CCCCCC"/>
<path d="M218.95 154.467C218.91 154.394 218.857 154.33 218.792 154.279C218.727 154.227 218.653 154.189 218.574 154.166C218.494 154.143 218.411 154.136 218.329 154.145C218.247 154.154 218.167 154.179 218.095 154.219L211.9 157.601L210.945 158.122L202.697 162.62C202.624 162.659 202.559 162.712 202.507 162.777C202.455 162.841 202.416 162.915 202.393 162.994C202.369 163.074 202.362 163.157 202.371 163.239C202.38 163.322 202.405 163.401 202.444 163.474C202.484 163.547 202.538 163.611 202.602 163.663C202.667 163.714 202.741 163.753 202.821 163.776C202.9 163.799 202.983 163.806 203.066 163.797C203.148 163.788 203.227 163.762 203.3 163.722L211.544 159.225L212.499 158.704L218.698 155.322C218.845 155.242 218.954 155.107 219.001 154.946C219.048 154.786 219.03 154.614 218.95 154.467Z" fill="#CCCCCC"/>
<path d="M197.286 167.721C198.761 167.721 199.957 166.526 199.957 165.051C199.957 163.576 198.761 162.381 197.286 162.381C195.812 162.381 194.616 163.576 194.616 165.051C194.616 166.526 195.812 167.721 197.286 167.721Z" fill="#CCCCCC"/>
<path d="M199.08 180.062C199.53 180.106 199.975 180.186 200.412 180.3L230.692 153.438L228.734 143.801L242.891 138.946L248.016 155.669C248.43 157.02 248.394 158.468 247.915 159.798C247.435 161.127 246.537 162.264 245.356 163.04L206.86 188.314C206.917 190.053 206.443 191.768 205.501 193.231C204.56 194.694 203.195 195.836 201.589 196.504C199.982 197.173 198.21 197.336 196.509 196.973C194.807 196.61 193.257 195.737 192.063 194.471C190.87 193.205 190.09 191.606 189.827 189.886C189.565 188.166 189.832 186.407 190.594 184.843C191.356 183.279 192.576 181.983 194.092 181.129C195.608 180.275 197.347 179.903 199.08 180.062Z" fill="#FFB8B8"/>
<path d="M251.536 141.352L242.957 124.968C242.075 122.476 240.258 120.425 237.891 119.247C235.524 118.069 232.793 117.857 230.272 118.656C230.177 118.682 230.086 118.712 229.99 118.747C227.436 119.64 225.341 121.509 224.164 123.945C222.987 126.381 222.825 129.185 223.713 131.74L227.155 149.848C227.254 150.366 227.463 150.857 227.769 151.287C228.074 151.717 228.469 152.076 228.926 152.34C229.426 152.632 229.989 152.799 230.567 152.826C231.043 152.856 231.52 152.789 231.97 152.63L233.81 151.988L245.627 147.872L249.491 146.527C249.989 146.352 250.444 146.073 250.825 145.707C251.206 145.341 251.503 144.898 251.697 144.407C251.891 143.916 251.977 143.389 251.949 142.862C251.921 142.335 251.78 141.82 251.536 141.352Z" fill="#FD719B"/>
<path d="M287.419 204.648H-229.997C-230.207 204.648 -230.408 204.596 -230.557 204.502C-230.706 204.408 -230.789 204.281 -230.789 204.148C-230.789 204.016 -230.706 203.888 -230.557 203.795C-230.408 203.701 -230.207 203.648 -229.997 203.648H287.419C287.629 203.648 287.83 203.701 287.979 203.795C288.128 203.888 288.211 204.016 288.211 204.148C288.211 204.281 288.128 204.408 287.979 204.502C287.83 204.596 287.629 204.648 287.419 204.648Z" fill="#3F3D56"/>
<path d="M49.2717 196.516V196.733C49.2732 198.205 49.7018 199.645 50.5056 200.878C51.3093 202.111 52.4536 203.084 53.7997 203.679C54.7652 204.111 55.8113 204.333 56.8689 204.331H126.98V196.516H49.2717Z" fill="#3F3D56"/>
<path d="M175.933 145.016C174.82 142.719 173.107 140.766 170.975 139.363C170.008 138.724 168.966 138.207 167.871 137.827C166.379 137.306 164.81 137.04 163.23 137.041H95.9404C92.1997 137.045 88.6135 138.533 85.9685 141.178C83.3234 143.823 81.8356 147.409 81.8312 151.15V190.221C81.83 190.77 81.862 191.318 81.9268 191.862C82.0222 192.677 82.1877 193.482 82.4216 194.268C82.6536 195.042 82.9528 195.794 83.3159 196.516C84.4846 198.865 86.2854 200.84 88.5157 202.221C90.746 203.601 93.3174 204.332 95.9404 204.331H163.23C165.083 204.331 166.918 203.967 168.63 203.258C170.342 202.549 171.898 201.51 173.208 200.2C174.519 198.889 175.558 197.334 176.267 195.622C176.975 193.909 177.34 192.074 177.339 190.221V151.15C177.342 149.025 176.861 146.927 175.933 145.016Z" fill="#3F3D56"/>
<path d="M133.275 174.159C135.193 174.159 136.748 172.604 136.748 170.686C136.748 168.768 135.193 167.213 133.275 167.213C131.357 167.213 129.802 168.768 129.802 170.686C129.802 172.604 131.357 174.159 133.275 174.159Z" fill="white"/>
</g>
<defs>
<clipPath id="clip0">
<rect width="310.529" height="262.286" fill="white"/>
</clipPath>
</defs>
</svg>
