<svg width="396" height="277" viewBox="0 0 396 277" fill="none" xmlns="http://www.w3.org/2000/svg">
<g clip-path="url(#clip0)">
<path d="M17.6386 106.223C18.0173 129.6 26.7546 132.131 37.4844 129.693C49.7419 126.908 59.8025 118.178 64.761 106.627L68.1807 98.6609C70.4541 93.3651 70.5306 87.383 68.3934 82.0308C66.2562 76.6785 62.0804 72.3944 56.7846 70.121H56.7845C54.1623 68.9953 51.344 68.3972 48.4906 68.3607C45.6372 68.3242 42.8045 68.85 40.1543 69.9083C37.5042 70.9665 35.0884 72.5363 33.0449 74.5282C31.0014 76.5201 29.3703 78.8949 28.2446 81.5171C17.2407 85.8397 15.0674 94.7887 17.6386 106.223Z" fill="#2F2E41"/>
<path d="M86.6325 59.173L89.9258 53.6001C90.328 52.9196 90.5708 52.1568 90.6361 51.3691C90.7014 50.5813 90.5874 49.789 90.3028 49.0515C90.0182 48.3141 89.5702 47.6507 88.9926 47.1111C88.4149 46.5715 87.7226 46.1697 86.9675 45.9359C86.1705 45.689 85.3261 45.6363 84.5046 45.782C83.6831 45.9277 82.9083 46.2676 82.2448 46.7735C81.5813 47.2793 81.0483 47.9364 80.6903 48.69C80.3322 49.4436 80.1595 50.2718 80.1864 51.1057L80.38 57.0961L64.9029 99.511L73.3428 101.273L86.6325 59.173Z" fill="#9F616A"/>
<path d="M5.20852 163.733L1.15488 168.78C0.659875 169.396 0.310853 170.117 0.134002 170.887C-0.0428491 171.657 -0.0429389 172.458 0.133738 173.228C0.310416 173.999 0.659274 174.719 1.15414 175.336C1.64901 175.952 2.27703 176.448 2.9911 176.787C3.74479 177.145 4.57309 177.318 5.40697 177.291C6.24086 177.263 7.05617 177.037 7.78496 176.631C8.51375 176.225 9.13491 175.651 9.59668 174.956C10.0584 174.261 10.3474 173.466 10.4396 172.636L11.1014 166.68L32.4633 126.902L24.3605 123.956L5.20852 163.733Z" fill="#9F616A"/>
<path d="M30.2534 205.72L30.8501 212.887L30.9901 214.559L70.6642 210.744C72.0317 210.59 73.3436 210.115 74.4932 209.358C75.6428 208.602 76.5977 207.585 77.2803 206.39C77.9628 205.195 78.3538 203.856 78.4214 202.481C78.489 201.106 78.2314 199.735 77.6694 198.479L64.8744 171.011L60.4547 161.523L41.3027 157.103C25.5097 169.191 39.719 182.531 57.5966 196.026C58.2964 196.557 59.0036 197.087 59.7181 197.617L30.2534 205.72Z" fill="#2F2E41"/>
<path d="M16.885 230.539C17.3684 230.608 17.8615 230.552 18.3169 230.375C18.7723 230.199 19.1747 229.909 19.4857 229.533L32.4633 213.823L31.7267 206.457L27.3017 203.802C26.9398 203.585 26.5348 203.449 26.1151 203.404C25.6954 203.359 25.2709 203.406 24.8712 203.542C24.4715 203.677 24.1061 203.898 23.8004 204.189C23.4947 204.481 23.2561 204.835 23.1011 205.227L14.6368 226.671C14.4787 227.071 14.4134 227.502 14.4457 227.931C14.4781 228.361 14.6073 228.777 14.8237 229.149C15.04 229.522 15.3379 229.84 15.6949 230.081C16.0519 230.321 16.4588 230.478 16.885 230.539Z" fill="#2F2E41"/>
<path opacity="0.2" d="M28.0436 204.247L28.7802 213.086L30.8501 212.887L68.4543 209.271C69.8219 209.116 71.1338 208.642 72.2834 207.885C73.433 207.129 74.3879 206.112 75.0704 204.917C75.753 203.722 76.144 202.382 76.2116 201.008C76.2792 199.633 76.0215 198.262 75.4596 197.006L64.8744 173.309V171.011L60.4547 161.523L41.3027 157.103C25.5097 169.191 39.719 182.531 57.5966 196.026L57.5082 196.144L28.0436 204.247Z" fill="black"/>
<path d="M13.2019 227.592C13.6853 227.662 14.1784 227.605 14.6338 227.429C15.0892 227.253 15.4917 226.963 15.8027 226.586L28.7802 210.876L28.0436 203.51L23.6186 200.855C23.2567 200.638 22.8518 200.502 22.432 200.457C22.0123 200.413 21.5878 200.46 21.1881 200.595C20.7884 200.731 20.423 200.952 20.1173 201.243C19.8117 201.534 19.573 201.888 19.4181 202.281L10.9537 223.724C10.7956 224.125 10.7303 224.556 10.7627 224.985C10.795 225.414 10.9242 225.831 11.1406 226.203C11.3569 226.575 11.6548 226.894 12.0118 227.134C12.3688 227.375 12.7757 227.532 13.2019 227.592Z" fill="#2F2E41"/>
<path d="M26.5704 202.774L27.307 211.613L66.9811 207.796C68.3486 207.642 69.6604 207.168 70.8101 206.411C71.9597 205.655 72.9147 204.638 73.5975 203.443C74.2804 202.249 74.6717 200.91 74.7398 199.535C74.8079 198.161 74.5508 196.79 73.9894 195.533L63.4012 171.836V158.577L37.6196 154.157C21.2051 166.719 37.1984 180.636 56.035 194.671L26.5704 202.774Z" fill="#2F2E41"/>
<path d="M51.6153 98.9107C57.7176 98.9107 62.6646 93.9638 62.6646 87.8615C62.6646 81.7592 57.7176 76.8123 51.6153 76.8123C45.513 76.8123 40.5661 81.7592 40.5661 87.8615C40.5661 93.9638 45.513 98.9107 51.6153 98.9107Z" fill="#9F616A"/>
<path d="M36.883 106.277L52.3519 116.589L65.611 113.643L58.2449 106.277V95.2276L46.459 94.491C46.2116 98.9033 43.6833 102.941 36.883 106.277Z" fill="#9F616A"/>
<path d="M34.6732 157.84L63.4012 161.523L70.0307 130.585C73.1106 122.373 71.3435 115.118 65.6414 108.639C65.4233 107.548 64.8424 106.564 63.9932 105.846C63.1441 105.128 62.0768 104.719 60.9654 104.685L58.2449 104.804C58.5526 114.573 51.3549 112.22 40.5661 104.067L39.2633 104.458C37.5792 104.963 36.1333 106.058 35.1903 107.542C34.2472 109.026 33.87 110.8 34.1276 112.539L35.3155 120.557C35.8193 123.736 36.6018 126.865 37.654 129.906C40.5993 138.709 39.5468 148.028 34.6732 157.84Z" fill="#2F68A6"/>
<path d="M21.4141 124.692L34.6731 129.112L40.5661 107.75L38.5697 106.843C36.9145 106.09 35.0351 105.996 33.3128 106.578C31.5905 107.161 30.1544 108.377 29.2958 109.98L21.4141 124.692Z" fill="#2F68A6"/>
<path d="M60.4547 104.804L67.821 112.906L76.6601 98.9106L65.6108 93.0178L60.4547 104.804Z" fill="#2F68A6"/>
<path d="M38.7245 84.5467C45.6678 87.1649 53.0778 86.8934 60.823 84.5467V75.7073H38.7245V84.5467Z" fill="#2F2E41"/>
<path d="M383.333 236.284L375.715 239.458L324.932 170.266L288.115 240.727L278.593 238.823L306.524 141.7H338.898L383.333 236.284Z" fill="#2F2E41"/>
<path d="M393.552 252.425C393.13 252.54 392.689 252.57 392.255 252.514C391.821 252.458 391.402 252.317 391.023 252.099L374.958 242.849C374.524 242.6 374.154 242.254 373.876 241.838C373.597 241.422 373.418 240.948 373.353 240.452C373.287 239.956 373.337 239.451 373.497 238.977C373.658 238.504 373.926 238.073 374.279 237.719L375.715 236.284L383.333 235.649L394.977 246.828C395.401 247.235 395.709 247.746 395.87 248.311C396.032 248.875 396.04 249.473 395.895 250.042C395.75 250.61 395.457 251.131 395.046 251.549C394.634 251.968 394.119 252.27 393.552 252.425Z" fill="#2F2E41"/>
<path d="M269.008 254.964C269.43 255.079 269.871 255.109 270.305 255.053C270.74 254.998 271.158 254.856 271.538 254.638L287.602 245.389C288.036 245.139 288.406 244.793 288.685 244.377C288.963 243.961 289.142 243.487 289.208 242.991C289.273 242.495 289.224 241.99 289.063 241.517C288.902 241.043 288.635 240.612 288.281 240.258L286.845 238.823L279.228 238.188L267.583 249.367C267.159 249.774 266.851 250.285 266.69 250.85C266.529 251.414 266.52 252.012 266.665 252.581C266.81 253.15 267.103 253.67 267.515 254.089C267.926 254.507 268.442 254.809 269.008 254.964Z" fill="#2F2E41"/>
<path d="M284.941 40.7695L281.767 42.6739L275.19 31.9857C274.786 31.3292 274.545 30.5853 274.489 29.8166C274.433 29.0478 274.563 28.2769 274.867 27.5687C275.171 26.8605 275.641 26.2359 276.238 25.7475C276.834 25.2592 277.539 24.9213 278.293 24.7625C278.964 24.6213 279.657 24.6252 280.326 24.7738C280.995 24.9224 281.624 25.2124 282.172 25.6242C282.72 26.0361 283.173 26.5603 283.502 27.1617C283.83 27.7631 284.027 28.4278 284.077 29.1113L284.941 40.7695Z" fill="#FFB9B9"/>
<path d="M372.863 123.982L374.18 120.523L385.958 124.856C386.681 125.122 387.33 125.558 387.849 126.127C388.369 126.697 388.744 127.383 388.943 128.128C389.141 128.872 389.158 129.654 388.992 130.406C388.825 131.159 388.48 131.86 387.985 132.452C387.545 132.977 386.998 133.403 386.381 133.7C385.763 133.997 385.089 134.158 384.404 134.173C383.719 134.188 383.038 134.056 382.408 133.787C381.778 133.517 381.213 133.116 380.75 132.611L372.863 123.982Z" fill="#FFB9B9"/>
<path d="M323.028 78.8567C328.287 78.8567 332.55 74.5936 332.55 69.3349C332.55 64.0762 328.287 59.8131 323.028 59.8131C317.769 59.8131 313.506 64.0762 313.506 69.3349C313.506 74.5936 317.769 78.8567 323.028 78.8567Z" fill="#FFB9B9"/>
<path d="M331.28 89.6479H317.95V75.048L329.376 73.7783L331.28 89.6479Z" fill="#FFB9B9"/>
<path d="M340.802 145.509H304.619C305.895 125.321 306.905 105.811 304.619 94.7262L306.723 84.6275C307.015 83.2282 307.822 81.99 308.985 81.1589C310.148 80.3278 311.581 79.9648 312.999 80.1421L317.95 80.7609C321.302 86.6551 325.354 86.5982 330.011 81.3957H335.974C336.769 81.3957 337.556 81.5543 338.289 81.8622C339.022 82.17 339.686 82.621 340.243 83.1887C340.799 83.7564 341.237 84.4295 341.53 85.1684C341.824 85.9073 341.967 86.6974 341.951 87.4922C343.504 94.605 344.021 101.905 343.485 109.166L340.802 145.509Z" fill="#3F3D56"/>
<path d="M279.862 40.7694L284.941 38.2305L312.237 83.3004L304.619 94.7263L279.862 40.7694Z" fill="#3F3D56"/>
<path d="M372.935 125.789L377.275 122.128L354.214 89.8142C351.958 86.6529 348.848 84.1998 345.248 82.7423C341.648 81.2848 337.708 80.8832 333.888 81.5845L333.16 81.7181L341.88 96.9777L353.365 105.673L372.935 125.789Z" fill="#3F3D56"/>
<path d="M334.04 63.7141C334.04 63.7141 335.819 59.7997 331.193 58.0205C331.193 58.0205 327.279 51.6152 319.45 55.8854C319.45 55.8854 314.112 58.0205 314.112 63.7141C314.112 69.4077 312.333 70.4752 312.333 70.4752C312.333 70.4752 314.983 67.757 315.694 65.6219C316.406 63.4868 321.941 63.0024 324.076 65.1375C326.211 67.2726 331.549 66.9167 331.549 66.9167L331.193 74.7454C331.193 74.7454 332.972 70.1194 333.684 70.1194C334.396 70.1194 335.107 63.7141 334.04 63.7141Z" fill="#2F2E41"/>
<path d="M333.161 276.796C365.338 276.796 391.422 275.437 391.422 273.761C391.422 272.085 365.338 270.727 333.161 270.727C300.984 270.727 274.899 272.085 274.899 273.761C274.899 275.437 300.984 276.796 333.161 276.796Z" fill="#E6E6E6"/>
<path d="M42.2691 275.365C59.2769 275.365 73.0645 274.647 73.0645 273.761C73.0645 272.875 59.2769 272.157 42.2691 272.157C25.2613 272.157 11.4737 272.875 11.4737 273.761C11.4737 274.647 25.2613 275.365 42.2691 275.365Z" fill="#E6E6E6"/>
<path d="M277.556 53.3878L90.3411 70.1667C89.4219 70.248 88.5079 69.9614 87.7997 69.3697C87.0915 68.778 86.6469 67.9295 86.5635 67.0105L82.4013 20.5706C82.32 19.6513 82.6067 18.7373 83.1984 18.0291C83.7901 17.321 84.6385 16.8764 85.5576 16.7929L272.772 0.0140466C273.691 -0.0672506 274.605 0.219386 275.314 0.811077C276.022 1.40277 276.466 2.2512 276.55 3.17026L280.712 49.6102C280.793 50.5294 280.507 51.4434 279.915 52.1516C279.323 52.8598 278.475 53.3044 277.556 53.3878Z" fill="#2F68A6"/>
<path d="M112.218 55.924C120.292 55.924 126.837 49.3786 126.837 41.3045C126.837 33.2304 120.292 26.6851 112.218 26.6851C104.144 26.6851 97.5984 33.2304 97.5984 41.3045C97.5984 49.3786 104.144 55.924 112.218 55.924Z" fill="white"/>
<path d="M144.977 28.5832C144.334 28.6421 143.741 28.9535 143.328 29.4492C142.914 29.9449 142.715 30.5843 142.772 31.2272C142.83 31.87 143.14 32.4637 143.635 32.878C144.13 33.2923 144.769 33.4933 145.412 33.4369L259.821 23.1832C260.14 23.1551 260.45 23.0643 260.734 22.9161C261.018 22.768 261.27 22.5653 261.475 22.3196C261.681 22.074 261.836 21.7903 261.932 21.4846C262.028 21.179 262.062 20.8575 262.034 20.5385C262.005 20.2195 261.914 19.9093 261.765 19.6256C261.617 19.3419 261.414 19.0902 261.168 18.8851C260.922 18.6799 260.638 18.5252 260.332 18.4299C260.026 18.3346 259.705 18.3005 259.386 18.3295L144.977 28.5832Z" fill="white"/>
<path d="M146.282 43.1443C145.963 43.1722 145.652 43.2629 145.368 43.411C145.084 43.5591 144.832 43.7618 144.627 44.0075C144.421 44.2531 144.266 44.5369 144.17 44.8426C144.074 45.1483 144.039 45.4699 144.068 45.789C144.097 46.1081 144.188 46.4184 144.337 46.7022C144.485 46.986 144.688 47.2377 144.934 47.4429C145.18 47.648 145.465 47.8027 145.77 47.8979C146.076 47.9932 146.398 48.0272 146.717 47.9979L261.126 37.7442C261.445 37.7161 261.755 37.6253 262.039 37.4772C262.323 37.329 262.575 37.1263 262.78 36.8807C262.986 36.635 263.141 36.3513 263.237 36.0457C263.333 35.7401 263.367 35.4186 263.339 35.0996C263.31 34.7806 263.219 34.4704 263.07 34.1866C262.922 33.9029 262.719 33.6513 262.473 33.4461C262.227 33.2409 261.943 33.0863 261.637 32.9909C261.331 32.8956 261.01 32.8615 260.691 32.8905L146.282 43.1443Z" fill="white"/>
</g>
<defs>
<clipPath id="clip0">
<rect width="396" height="276.796" fill="white"/>
</clipPath>
</defs>
</svg>
