<svg width="386" height="364" viewBox="0 0 386 364" fill="none" xmlns="http://www.w3.org/2000/svg">
<g clip-path="url(#clip0)">
<path d="M105.672 206.08V306.401L88.891 333.748L87.6139 335.829H21.402L20.0641 206.08H105.672Z" fill="#E6E6E6"/>
<path opacity="0.1" d="M105.672 206.08V306.401L88.891 333.748L87.8612 206.08H105.672Z" fill="black"/>
<path d="M265.517 203.404V303.726L282.298 331.073L283.575 333.153H349.787L351.125 203.404H265.517Z" fill="#E6E6E6"/>
<path opacity="0.1" d="M265.517 203.404V303.726L282.298 331.073L283.327 203.404H265.517Z" fill="black"/>
<path d="M9.15527e-05 201.398V207.417H359.819V198.723L326.379 181.334H29.4275L9.15527e-05 201.398Z" fill="#E6E6E6"/>
<path opacity="0.1" d="M9.15527e-05 201.398V207.417H359.819V198.723L9.15527e-05 201.398Z" fill="black"/>
<path d="M308.32 231.494H324.372L331.06 226.813H300.964L308.32 231.494Z" fill="#424040"/>
<path d="M308.32 250.89H324.372L331.06 246.208H300.964L308.32 250.89Z" fill="#424040"/>
<path d="M308.32 278.311H324.372L331.06 273.629H300.964L308.32 278.311Z" fill="#424040"/>
<path d="M308.32 305.732H324.372L331.06 301.051H300.964L308.32 305.732Z" fill="#424040"/>
<path d="M62.8681 234.169H46.8164L40.1283 229.488H70.2249L62.8681 234.169Z" fill="#424040"/>
<path d="M62.8681 253.565H46.8164L40.1283 248.883H70.2249L62.8681 253.565Z" fill="#424040"/>
<path d="M62.8681 280.986H46.8164L40.1283 276.305H70.2249L62.8681 280.986Z" fill="#424040"/>
<path d="M62.8681 308.407H46.8164L40.1283 303.726H70.2249L62.8681 308.407Z" fill="#424040"/>
<path d="M51.9373 65.3222H187.068C187.739 65.3221 188.404 65.4542 189.024 65.711C189.644 65.9678 190.207 66.3442 190.682 66.8188C191.156 67.2934 191.533 67.8568 191.79 68.4769C192.046 69.0969 192.179 69.7615 192.178 70.4327V161.46C192.179 162.131 192.046 162.796 191.79 163.416C191.533 164.036 191.156 164.599 190.682 165.074C190.207 165.549 189.644 165.925 189.024 166.182C188.404 166.439 187.739 166.571 187.068 166.571H135.771L137.693 178.841C137.693 178.841 148.676 184.675 140.954 184.847C133.231 185.019 96.8504 184.847 96.8504 184.847C96.8504 184.847 89.8145 184.847 100.969 178.669L102.777 166.571H51.9373C51.2662 166.571 50.6016 166.439 49.9815 166.182C49.3614 165.925 48.798 165.549 48.3235 165.074C47.8489 164.599 47.4725 164.036 47.2157 163.416C46.9589 162.796 46.8267 162.131 46.8268 161.46V70.4327C46.8267 69.7615 46.9589 69.0969 47.2157 68.4769C47.4725 67.8568 47.8489 67.2934 48.3235 66.8188C48.798 66.3442 49.3614 65.9678 49.9815 65.711C50.6016 65.4542 51.2662 65.3221 51.9373 65.3222Z" fill="#424040"/>
<path d="M51.7176 70.7279H187.288V146.578H51.7176V70.7279Z" fill="#F2F2F2"/>
<path d="M119.503 69.1834C119.029 69.1834 118.645 68.7992 118.645 68.3253C118.645 67.8515 119.029 67.4673 119.503 67.4673C119.976 67.4673 120.361 67.8515 120.361 68.3253C120.361 68.7992 119.976 69.1834 119.503 69.1834Z" fill="#F2F2F2"/>
<path d="M119.503 162.881C117.702 162.881 116.242 161.421 116.242 159.621C116.242 157.82 117.702 156.36 119.503 156.36C121.303 156.36 122.763 157.82 122.763 159.621C122.763 161.421 121.303 162.881 119.503 162.881Z" fill="#F2F2F2"/>
<path d="M124.583 194.114V195.83H216.908V194.457L216.781 194.114L214.506 187.936H126.471L124.583 194.114Z" fill="#424040"/>
<path d="M89.054 192.434C89.2221 193.153 89.8571 193.911 91.2917 194.629C96.44 197.203 106.908 193.942 106.908 193.942C106.908 193.942 114.974 192.569 114.974 188.966C114.747 188.81 114.511 188.67 114.267 188.545C112.102 187.4 104.926 184.574 92.2006 188.665C91.2631 188.959 90.4257 189.508 89.7817 190.25C89.4964 190.53 89.2817 190.875 89.1552 191.254C89.0287 191.634 88.994 192.038 89.054 192.434Z" fill="#424040"/>
<path opacity="0.1" d="M89.054 192.434C95.3554 194.848 100.972 195.028 106.736 191.025C108.916 189.413 111.556 188.544 114.267 188.545C112.102 187.4 104.926 184.574 92.2006 188.665C91.2631 188.959 90.4257 189.508 89.7817 190.25C89.4964 190.53 89.2817 190.875 89.1552 191.254C89.0287 191.634 88.994 192.038 89.054 192.434Z" fill="black"/>
<path d="M96.9549 191.025C95.7228 191.025 94.724 190.717 94.724 190.338C94.724 189.959 95.7228 189.652 96.9549 189.652C98.187 189.652 99.1858 189.959 99.1858 190.338C99.1858 190.717 98.187 191.025 96.9549 191.025Z" fill="#F2F2F2"/>
<path opacity="0.1" d="M124.583 194.114V195.83H216.908V194.457L216.781 194.114H124.583Z" fill="black"/>
<path d="M334.336 5.66561e-05C335.273 -0.0768747 336.211 0.132723 337.026 0.601076C337.827 1.14922 338.331 2.10952 338.846 3.00313C340.815 6.46056 343.481 9.47142 346.674 11.845C349 13.5488 351.957 15.6734 351.559 18.8149C351.349 19.8523 350.966 20.847 350.425 21.757C348.279 26.0883 342.424 29.4355 343 34.3778C340.868 30.809 343.72 29.0444 341.588 25.4757C340.573 23.7761 338.809 21.8577 337.277 22.925C336.763 23.2823 336.426 23.9233 335.892 24.2369C334.617 24.9851 333.261 23.5547 332.132 22.5415C328.24 19.0477 322.705 19.963 317.862 21.0516C315.576 21.5655 313.064 22.2397 311.713 24.425C309.936 27.2982 313.401 30.4012 314.277 33.6496C314.348 33.9264 314.352 34.2164 314.287 34.4948C314.222 34.7732 314.09 35.0317 313.903 35.2482C313.717 35.4646 313.48 35.6327 313.215 35.7379C312.949 35.8432 312.661 35.8825 312.377 35.8525C310.924 35.7091 309.202 35.5916 309.116 34.9539C307.288 35.019 305.048 34.812 304.264 32.9081C304.025 32.1549 303.898 31.3703 303.889 30.58C303.601 27.382 302.244 24.4645 301.345 21.4208C300.446 18.377 300.055 14.81 301.572 12.1114C302.114 11.2135 302.783 10.3995 303.56 9.69517C312.171 1.36194 323.493 -0.012313 334.336 5.66561e-05Z" fill="#424040"/>
<path d="M341.127 40.6203C341.127 40.6203 339.255 56.2265 346.121 57.475C352.988 58.7235 339.879 79.948 339.879 79.948L308.666 83.6935L316.157 58.7235C316.157 58.7235 321.151 56.8508 318.03 44.3658C314.909 31.8808 341.127 40.6203 341.127 40.6203Z" fill="#FFB8B8"/>
<path d="M360.167 308.735L357.67 343.069H344.561L348.306 308.735H360.167Z" fill="#FFB8B8"/>
<path d="M264.033 243.813L262.16 272.529L247.802 266.286L253.421 242.565L264.033 243.813Z" fill="#FFB8B8"/>
<path d="M369.531 177.643C369.531 177.643 368.907 213.85 365.161 225.71C361.415 237.571 362.04 238.195 362.664 240.068C363.288 241.941 363.912 240.692 363.912 243.814C363.912 246.935 365.161 296.251 363.912 300.62C362.664 304.99 367.658 312.481 363.912 313.105C360.167 313.729 342.688 313.105 342.064 309.36C341.44 305.614 347.058 304.366 344.561 301.869C342.064 299.372 338.318 248.183 338.318 248.183L329.579 212.601L313.348 193.874H279.015L268.402 235.074C268.402 235.074 272.772 246.935 269.651 246.935C266.53 246.935 247.802 250.68 247.802 236.947C247.802 223.213 254.045 182.637 255.293 181.389C256.542 180.14 254.669 175.77 256.542 173.898C258.414 172.025 280.263 158.916 288.378 156.419C296.494 153.922 307.878 150.95 307.878 150.95L369.531 177.643Z" fill="#424040"/>
<path d="M247.802 261.292C247.802 261.292 257.166 258.171 261.535 267.535C265.905 276.899 264.032 279.396 264.032 279.396C264.032 279.396 249.675 284.39 247.178 281.893C246.091 280.806 242.642 280.429 239.091 280.349C233.683 280.228 232.244 272.576 237.351 270.795C237.504 270.742 237.658 270.695 237.814 270.656C242.808 269.408 247.802 261.292 247.802 261.292Z" fill="#424040"/>
<path d="M327.082 50.9205C316.739 50.9205 308.354 42.5359 308.354 32.193C308.354 21.8501 316.739 13.4655 327.082 13.4655C337.425 13.4655 345.809 21.8501 345.809 32.193C345.809 42.5359 337.425 50.9205 327.082 50.9205Z" fill="#FFB8B8"/>
<path d="M351.428 65.2781C351.428 65.2781 320.839 71.5206 313.348 61.5326C305.857 51.5446 302.736 89.6238 302.736 89.6238L298.991 129.576L304.609 151.425C304.609 151.425 333.949 175.146 343.312 177.019C352.676 178.892 367.034 180.14 367.034 180.14C367.034 180.14 362.664 110.848 362.664 109.6C362.664 108.351 351.428 65.2781 351.428 65.2781Z" fill="#FD719B"/>
<path d="M342.125 53.5706C342.125 53.5706 348.931 49.6719 350.803 53.4174C352.676 57.1629 370.155 66.5267 372.028 66.5267C373.901 66.5267 368.282 118.339 370.779 124.582C373.276 130.824 385.137 176.395 378.27 180.14C371.404 183.886 376.398 176.395 369.531 185.758C362.664 195.122 328.955 195.122 327.082 191.377C325.209 187.631 342.064 159.54 338.943 133.321C335.821 107.103 330.827 70.8964 335.197 65.9024C339.567 60.9084 342.125 53.5706 342.125 53.5706Z" fill="#424040"/>
<path d="M319.591 57.7872L318.721 54.7949C318.721 54.7949 292.748 63.4055 291.5 69.0237C290.251 74.642 290.875 113.97 295.245 117.091C299.615 120.212 305.857 125.206 301.488 132.697C297.118 140.188 292.124 148.303 288.378 148.928C284.633 149.552 277.766 153.922 279.639 158.291C281.512 162.661 303.985 154.546 303.985 154.546C303.985 154.546 318.967 143.309 318.342 125.83C317.718 108.351 319.591 57.7872 319.591 57.7872Z" fill="#424040"/>
<path d="M297.742 131.449L312.724 159.54C312.724 159.54 334.573 182.013 322.088 184.51C309.603 187.007 302.736 163.91 302.736 163.91L286.506 140.812L297.742 131.449Z" fill="#FFB8B8"/>
<path d="M333.424 4.90011C334.178 4.84418 334.935 4.99083 335.614 5.32491C336.228 5.77342 336.734 6.35346 337.095 7.02266C338.76 9.52726 340.931 11.6559 343.467 13.272C345.36 14.4763 347.768 15.9779 347.444 18.1983C347.268 18.9427 346.955 19.6479 346.521 20.2778C344.768 23.3701 344.07 26.9491 344.533 30.4732L339.327 22.9061C338.501 21.7049 337.065 20.3489 335.817 21.1033C335.4 21.3559 335.125 21.8089 334.69 22.0305C333.652 22.5594 332.548 21.5484 331.629 20.8323C328.461 18.3629 323.956 19.0098 320.013 19.7792C318.152 20.1424 316.108 20.619 315.007 22.1635C313.179 24.7302 315.088 28.439 314.021 31.4041C313.722 31.195 313.469 30.928 313.275 30.619C313.081 30.31 312.952 29.9653 312.894 29.6053C311.405 29.6513 309.582 29.5049 308.944 28.1593C308.75 27.632 308.647 27.0756 308.638 26.5138C308.404 24.2535 307.299 22.1914 306.567 20.0401C305.836 17.8888 305.517 15.3677 306.752 13.4603C307.204 12.814 307.75 12.2385 308.371 11.7525C315.381 5.86268 324.597 4.89137 333.424 4.90011Z" fill="#424040"/>
<path d="M297.742 66.5266L291.926 68.0704C291.926 68.0704 278.39 102.733 281.512 126.455C284.633 150.176 286.506 145.182 286.506 145.182C286.506 145.182 291.5 133.946 302.736 136.443L297.742 66.5266Z" fill="#424040"/>
<path d="M359.302 338.532C360.808 340.577 360.506 343.501 361.839 345.663C362.995 347.537 365.173 348.519 366.619 350.18C367.081 350.731 367.492 351.323 367.848 351.947C369.189 354.194 370.279 357.073 368.958 359.332C367.896 361.148 365.663 361.858 363.614 362.342C361.025 362.954 358.335 363.444 355.717 362.976C353.098 362.509 350.538 360.905 349.605 358.414C349.421 357.788 349.203 357.172 348.951 356.57C347.532 353.776 343.079 353.745 341.627 350.968C340.61 349.025 341.545 346.675 342.479 344.691L345.332 338.63C346.279 336.618 350.117 337.775 352.118 337.293C354.727 336.664 357.425 335.972 359.302 338.532Z" fill="#424040"/>
<path d="M380.143 143.934L353.925 184.51C353.925 184.51 337.694 205.11 332.7 195.746C327.706 186.383 350.179 170.776 350.179 170.776L367.034 139.564L380.143 143.934Z" fill="#FFB8B8"/>
<path d="M367.034 67.7751L372.028 66.5266C372.028 66.5266 382.016 69.6479 384.513 82.7571C387.01 95.8663 385.137 148.303 382.016 148.928C378.895 149.552 366.6 139.797 364.632 141.865C362.664 143.934 368.907 133.321 367.034 127.703C365.161 122.085 367.034 67.7751 367.034 67.7751Z" fill="#424040"/>
<path d="M132.334 95.6397H148.469V99.5239H132.334V95.6397Z" fill="#FD719B"/>
<path d="M76.4615 95.6397H82.1384V99.5239H76.4615V95.6397Z" fill="#FD719B"/>
<path d="M65.1075 95.6397H70.7844V99.5239H65.1075V95.6397Z" fill="#FD719B"/>
<path d="M88.1142 95.6397H126.657V99.5239H88.1142V95.6397Z" fill="#FD719B"/>
<path d="M152.652 120.738H168.786V124.622H152.652V120.738Z" fill="#FD719B"/>
<path d="M96.7789 120.738H102.456V124.622H96.7789V120.738Z" fill="#FD719B"/>
<path d="M85.4249 120.738H91.1018V124.622H85.4249V120.738Z" fill="#FD719B"/>
<path d="M108.431 120.738H146.975V124.622H108.431V120.738Z" fill="#FD719B"/>
<path d="M86.0226 104.305H102.157V108.189H86.0226V104.305Z" fill="#FD719B"/>
<path d="M64.2113 104.305H80.3457V108.189H64.2113V104.305Z" fill="#FD719B"/>
<path d="M163.109 104.305H168.786V108.189H163.109V104.305Z" fill="#FD719B"/>
<path d="M151.755 104.305H157.432V108.189H151.755V104.305Z" fill="#FD719B"/>
<path d="M107.535 104.305H146.078V108.189H107.535V104.305Z" fill="#FD719B"/>
<path d="M119.487 112.671H135.621V116.555H119.487V112.671Z" fill="#FD719B"/>
<path d="M141.298 112.671H157.432V116.555H141.298V112.671Z" fill="#FD719B"/>
<path d="M163.109 112.671H168.786V116.555H163.109V112.671Z" fill="#FD719B"/>
<path d="M64.2113 112.671H69.8882V116.555H64.2113V112.671Z" fill="#FD719B"/>
<path d="M75.5651 112.671H114.108V116.555H75.5651V112.671Z" fill="#FD719B"/>
</g>
<defs>
<clipPath id="clip0">
<rect width="385.67" height="363.162" fill="white" transform="matrix(-1 0 0 1 385.67 0)"/>
</clipPath>
</defs>
</svg>
