<svg width="168" height="155" viewBox="0 0 168 155" fill="none" xmlns="http://www.w3.org/2000/svg">
<path d="M150.845 0.160889H16.7606C12.3169 0.165769 8.05662 1.93318 4.91445 5.07534C1.77229 8.2175 0.00488001 12.4778 0 16.9215V110.781C0.00488001 115.224 1.77229 119.485 4.91445 122.627C8.05662 125.769 12.3169 127.536 16.7606 127.541H150.845C155.289 127.536 159.549 125.769 162.691 122.627C165.834 119.485 167.601 115.224 167.606 110.781V16.9215C167.601 12.4778 165.834 8.2175 162.691 5.07534C159.549 1.93318 155.289 0.165769 150.845 0.160889ZM160.902 110.781C160.899 113.447 159.838 116.003 157.953 117.889C156.068 119.774 153.512 120.834 150.845 120.837H16.7606C14.0944 120.834 11.5382 119.774 9.65286 117.889C7.76755 116.003 6.70712 113.447 6.70424 110.781V16.9215C6.70712 14.2553 7.76755 11.6991 9.65286 9.81375C11.5382 7.92844 14.0944 6.86801 16.7606 6.86512H150.845C153.512 6.86801 156.068 7.92844 157.953 9.81375C159.838 11.6991 160.899 14.2553 160.902 16.9215V110.781ZM113.972 151.006C113.972 151.895 113.619 152.748 112.99 153.376C112.362 154.005 111.509 154.358 110.62 154.358H56.986C56.097 154.358 55.2443 154.005 54.6157 153.376C53.9871 152.748 53.6339 151.895 53.6339 151.006C53.6339 150.117 53.9871 149.265 54.6157 148.636C55.2443 148.007 56.097 147.654 56.986 147.654H110.62C111.509 147.654 112.362 148.007 112.99 148.636C113.619 149.265 113.972 150.117 113.972 151.006Z" fill="#424040" fill-opacity="0.2"/>
<g clip-path="url(#clip0)">
<path d="M125.475 95C125.475 96.95 124.787 98.4375 123.412 99.4625C122.037 100.488 120.35 101 118.35 101H49.125C47.125 101 45.4375 100.475 44.0625 99.425C42.6875 98.375 42 96.9 42 95C42 93.5 42.45 91.975 43.35 90.425L77.925 30.125C79.575 27.375 81.525 26 83.775 26C86.025 26 87.925 27.375 89.475 30.125L124.125 90.5C125.025 92.1 125.475 93.6 125.475 95ZM88.95 56.675V45.725H78.525V56.675C78.525 57.375 78.575 58.0375 78.675 58.6625C78.775 59.2875 78.9125 59.9875 79.0875 60.7625C79.2625 61.5375 79.4 62.2 79.5 62.75L81.45 74.9H85.875L87.9 62.75C88 62.25 88.15 61.6 88.35 60.8C88.55 60 88.7 59.2875 88.8 58.6625C88.9 58.0375 88.95 57.375 88.95 56.675ZM88.95 85.7C88.95 84.25 88.4375 83.025 87.4125 82.025C86.3875 81.025 85.15 80.525 83.7 80.525C82.3 80.525 81.0875 81.025 80.0625 82.025C79.0375 83.025 78.525 84.25 78.525 85.7C78.525 87.15 79.0375 88.3875 80.0625 89.4125C81.0875 90.4375 82.3 90.95 83.7 90.95C85.15 90.95 86.3875 90.4375 87.4125 89.4125C88.4375 88.3875 88.95 87.15 88.95 85.7Z" fill="#FD7171"/>
</g>
<defs>
<clipPath id="clip0">
<rect width="83.475" height="75" fill="white" transform="translate(42 26)"/>
</clipPath>
</defs>
</svg>
