<svg width="168" height="155" viewBox="0 0 168 155" fill="none" xmlns="http://www.w3.org/2000/svg">
<path d="M150.845 0H16.7606C12.3169 0.00488001 8.05662 1.77229 4.91445 4.91445C1.77229 8.05662 0.00488001 12.3169 0 16.7606V110.62C0.00488001 115.064 1.77229 119.324 4.91445 122.466C8.05662 125.608 12.3169 127.376 16.7606 127.38H150.845C155.289 127.376 159.549 125.608 162.691 122.466C165.834 119.324 167.601 115.064 167.606 110.62V16.7606C167.601 12.3169 165.834 8.05662 162.691 4.91445C159.549 1.77229 155.289 0.00488001 150.845 0V0ZM160.902 110.62C160.899 113.286 159.838 115.842 157.953 117.728C156.068 119.613 153.512 120.673 150.845 120.676H16.7606C14.0944 120.673 11.5382 119.613 9.65286 117.728C7.76755 115.842 6.70712 113.286 6.70424 110.62V16.7606C6.70712 14.0944 7.76755 11.5382 9.65286 9.65286C11.5382 7.76755 14.0944 6.70712 16.7606 6.70424H150.845C153.512 6.70712 156.068 7.76755 157.953 9.65286C159.838 11.5382 160.899 14.0944 160.902 16.7606V110.62ZM113.972 150.845C113.972 151.734 113.619 152.587 112.99 153.216C112.362 153.844 111.509 154.197 110.62 154.197H56.986C56.097 154.197 55.2443 153.844 54.6157 153.216C53.9871 152.587 53.6339 151.734 53.6339 150.845C53.6339 149.956 53.9871 149.104 54.6157 148.475C55.2443 147.846 56.097 147.493 56.986 147.493H110.62C111.509 147.493 112.362 147.846 112.99 148.475C113.619 149.104 113.972 149.956 113.972 150.845Z" fill="#424040" fill-opacity="0.2"/>
<path d="M83.5 22C62.7893 22 46 38.7893 46 59.5C46 80.2107 62.7893 97 83.5 97C104.211 97 121 80.2107 121 59.5C121 38.7893 104.211 22 83.5 22ZM99.5904 39.5644L107.381 47.3555L83.0468 71.6949L75.3014 79.4356L67.5103 71.6445L59.6184 63.748L67.3592 56.0072L75.2511 63.9036L99.5904 39.5644Z" fill="#51A135"/>
</svg>
