<svg width="168" height="155" viewBox="0 0 168 155" fill="none" xmlns="http://www.w3.org/2000/svg">
<path d="M150.845 0.160889H16.7606C12.3169 0.165769 8.05662 1.93318 4.91445 5.07534C1.77229 8.2175 0.00488001 12.4778 0 16.9215V110.781C0.00488001 115.224 1.77229 119.485 4.91445 122.627C8.05662 125.769 12.3169 127.536 16.7606 127.541H150.845C155.289 127.536 159.549 125.769 162.691 122.627C165.834 119.485 167.601 115.224 167.606 110.781V16.9215C167.601 12.4778 165.834 8.2175 162.691 5.07534C159.549 1.93318 155.289 0.165769 150.845 0.160889ZM160.902 110.781C160.899 113.447 159.838 116.003 157.953 117.889C156.068 119.774 153.512 120.834 150.845 120.837H16.7606C14.0944 120.834 11.5382 119.774 9.65286 117.889C7.76755 116.003 6.70712 113.447 6.70424 110.781V16.9215C6.70712 14.2553 7.76755 11.6991 9.65286 9.81375C11.5382 7.92844 14.0944 6.86801 16.7606 6.86512H150.845C153.512 6.86801 156.068 7.92844 157.953 9.81375C159.838 11.6991 160.899 14.2553 160.902 16.9215V110.781ZM113.972 151.006C113.972 151.895 113.619 152.748 112.99 153.376C112.362 154.005 111.509 154.358 110.62 154.358H56.986C56.097 154.358 55.2443 154.005 54.6157 153.376C53.9871 152.748 53.6339 151.895 53.6339 151.006C53.6339 150.117 53.9871 149.265 54.6157 148.636C55.2443 148.007 56.097 147.654 56.986 147.654H110.62C111.509 147.654 112.362 148.007 112.99 148.636C113.619 149.265 113.972 150.117 113.972 151.006Z" fill="#424040" fill-opacity="0.2"/>
<path d="M82.5 24.75C74.836 24.75 67.3441 27.0226 60.9717 31.2806C54.5993 35.5385 49.6326 41.5904 46.6997 48.671C43.7668 55.7516 42.9994 63.543 44.4946 71.0597C45.9898 78.5765 49.6804 85.4811 55.0996 90.9004C60.5189 96.3197 67.4235 100.01 74.9403 101.505C82.457 103.001 90.2484 102.233 97.329 99.3003C104.41 96.3674 110.462 91.4007 114.719 85.0283C118.977 78.6559 121.25 71.164 121.25 63.5C121.25 58.4113 120.248 53.3724 118.3 48.671C116.353 43.9696 113.499 39.6979 109.9 36.0996C106.302 32.5013 102.03 29.647 97.329 27.6997C92.6276 25.7523 87.5887 24.75 82.5 24.75ZM82.5 82.875C81.7336 82.875 80.9844 82.6477 80.3472 82.2219C79.7099 81.7962 79.2133 81.191 78.92 80.4829C78.6267 79.7748 78.55 78.9957 78.6995 78.244C78.849 77.4923 79.2181 76.8019 79.76 76.26C80.3019 75.718 80.9924 75.349 81.744 75.1995C82.4957 75.0499 83.2749 75.1267 83.9829 75.42C84.691 75.7133 85.2962 76.2099 85.722 76.8472C86.1478 77.4844 86.375 78.2336 86.375 79C86.375 80.0277 85.9668 81.0133 85.2401 81.74C84.5134 82.4667 83.5277 82.875 82.5 82.875ZM86.375 67.375C86.375 68.4027 85.9668 69.3883 85.2401 70.115C84.5134 70.8417 83.5277 71.25 82.5 71.25C81.4723 71.25 80.4867 70.8417 79.76 70.115C79.0333 69.3883 78.625 68.4027 78.625 67.375V48C78.625 46.9723 79.0333 45.9867 79.76 45.26C80.4867 44.5333 81.4723 44.125 82.5 44.125C83.5277 44.125 84.5134 44.5333 85.2401 45.26C85.9668 45.9867 86.375 46.9723 86.375 48V67.375Z" fill="#FACE4B"/>
</svg>
