<svg width="54" height="44" viewBox="0 0 54 44" fill="none" xmlns="http://www.w3.org/2000/svg">
<path d="M1.87641 1.57292e-08H51.492C51.7385 -3.1107e-05 51.9825 0.0484809 52.2101 0.142768C52.4378 0.237055 52.6447 0.375269 52.8189 0.549516C52.9932 0.723762 53.1314 0.930628 53.2257 1.1583C53.32 1.38597 53.3685 1.62998 53.3684 1.8764V35.2988C53.3685 35.5452 53.32 35.7892 53.2257 36.0169C53.1314 36.2446 52.9932 36.4514 52.8189 36.6257C52.6447 36.7999 52.4378 36.9381 52.2101 37.0324C51.9825 37.1267 51.7385 37.1752 51.492 37.1752H32.6575L33.3632 41.6803C33.3632 41.6803 37.3957 43.8226 34.5603 43.8856C31.7249 43.9486 18.3671 43.8856 18.3671 43.8856C18.3671 43.8856 15.7837 43.8856 19.8793 41.6173L20.543 37.1752H1.87641C1.62999 37.1752 1.38597 37.1267 1.1583 37.0324C0.930628 36.9381 0.723763 36.7999 0.549516 36.6257C0.37527 36.4514 0.237061 36.2446 0.142775 36.0169C0.0484881 35.7892 -2.81008e-05 35.5452 3.80666e-06 35.2988V1.8764C-2.83624e-05 1.62998 0.0484882 1.38597 0.142775 1.1583C0.237061 0.930628 0.37527 0.723762 0.549516 0.549516C0.723763 0.375269 0.930628 0.237055 1.1583 0.142768C1.38597 0.0484811 1.62998 -3.18918e-05 1.87641 1.57292e-08V1.57292e-08Z" fill="#424040"/>
<rect x="5" y="5" width="43.6651" height="25.8756" fill="white"/>
</svg>
