<svg width="25" height="25" viewBox="0 0 25 25" fill="none" xmlns="http://www.w3.org/2000/svg">
<path d="M15.9385 8.8007H9.75205C9.63486 8.8007 9.52246 8.84726 9.43959 8.93013C9.35672 9.013 9.31016 9.12539 9.31016 9.24259V15.4291C9.31016 15.5463 9.35672 15.6586 9.43959 15.7415C9.52246 15.8244 9.63486 15.8709 9.75205 15.8709H15.9385C16.0557 15.8709 16.1681 15.8244 16.251 15.7415C16.3339 15.6586 16.3804 15.5463 16.3804 15.4291V9.24259C16.3804 9.12539 16.3339 9.013 16.251 8.93013C16.1681 8.84726 16.0557 8.8007 15.9385 8.8007ZM15.4966 14.9872H10.1939V9.68448H15.4966V14.9872ZM24.3344 14.5453H22.125V10.1264H24.3344C24.4516 10.1264 24.564 10.0798 24.6469 9.99695C24.7298 9.91408 24.7763 9.80168 24.7763 9.68448C24.7763 9.56729 24.7298 9.45489 24.6469 9.37202C24.564 9.28915 24.4516 9.24259 24.3344 9.24259H22.125V4.3818C22.1246 4.03032 21.9848 3.69336 21.7363 3.44483C21.4878 3.1963 21.1508 3.05651 20.7993 3.05613H15.9385V0.846675C15.9385 0.729479 15.892 0.617082 15.8091 0.534212C15.7262 0.451341 15.6138 0.404785 15.4966 0.404785C15.3794 0.404785 15.267 0.451341 15.1842 0.534212C15.1013 0.617082 15.0547 0.729479 15.0547 0.846675V3.05613H10.6358V0.846675C10.6358 0.729479 10.5893 0.617082 10.5064 0.534212C10.4235 0.451341 10.3111 0.404785 10.1939 0.404785C10.0767 0.404785 9.96435 0.451341 9.88148 0.534212C9.79861 0.617082 9.75205 0.729479 9.75205 0.846675V3.05613H4.89126C4.53979 3.05651 4.20282 3.1963 3.95429 3.44483C3.70576 3.69336 3.56597 4.03032 3.56559 4.3818V9.24259H1.35614C1.23894 9.24259 1.12654 9.28915 1.04367 9.37202C0.960802 9.45489 0.914246 9.56729 0.914246 9.68448C0.914246 9.80168 0.960802 9.91408 1.04367 9.99695C1.12654 10.0798 1.23894 10.1264 1.35614 10.1264H3.56559V14.5453H1.35614C1.23894 14.5453 1.12654 14.5918 1.04367 14.6747C0.960802 14.7576 0.914246 14.87 0.914246 14.9872C0.914246 15.1044 0.960802 15.2168 1.04367 15.2996C1.12654 15.3825 1.23894 15.4291 1.35614 15.4291H3.56559V20.2899C3.56597 20.6413 3.70576 20.9783 3.95429 21.2268C4.20282 21.4753 4.53979 21.6151 4.89126 21.6155H9.75205V23.825C9.75205 23.9422 9.79861 24.0546 9.88148 24.1374C9.96435 24.2203 10.0767 24.2669 10.1939 24.2669C10.3111 24.2669 10.4235 24.2203 10.5064 24.1374C10.5893 24.0546 10.6358 23.9422 10.6358 23.825V21.6155H15.0547V23.825C15.0547 23.9422 15.1013 24.0546 15.1842 24.1374C15.267 24.2203 15.3794 24.2669 15.4966 24.2669C15.6138 24.2669 15.7262 24.2203 15.8091 24.1374C15.892 24.0546 15.9385 23.9422 15.9385 23.825V21.6155H20.7993C21.1508 21.6151 21.4878 21.4753 21.7363 21.2268C21.9848 20.9783 22.1246 20.6413 22.125 20.2899V15.4291H24.3344C24.4516 15.4291 24.564 15.3825 24.6469 15.2996C24.7298 15.2168 24.7763 15.1044 24.7763 14.9872C24.7763 14.87 24.7298 14.7576 24.6469 14.6747C24.564 14.5918 24.4516 14.5453 24.3344 14.5453ZM21.2412 20.2899C21.2411 20.407 21.1945 20.5193 21.1116 20.6022C21.0288 20.685 20.9165 20.7316 20.7993 20.7317H4.89126C4.7741 20.7316 4.66177 20.685 4.57892 20.6022C4.49608 20.5193 4.44949 20.407 4.44937 20.2899V4.3818C4.44949 4.26464 4.49608 4.15231 4.57892 4.06946C4.66177 3.98662 4.7741 3.94002 4.89126 3.93991H20.7993C20.9165 3.94002 21.0288 3.98662 21.1116 4.06946C21.1945 4.15231 21.2411 4.26464 21.2412 4.3818V20.2899Z" fill="#424040"/>
</svg>
