<svg width="20" height="21" viewBox="0 0 20 21" fill="none" xmlns="http://www.w3.org/2000/svg">
<path d="M17.9994 10.1369H9.86315V2.00062C9.86315 1.90051 9.78124 1.8186 9.68113 1.8186H9.08957C7.89571 1.81739 6.71337 2.05191 5.61037 2.50873C4.50737 2.96555 3.50543 3.63566 2.66203 4.48063C1.83164 5.30845 1.17016 6.28985 0.714424 7.37018C0.241175 8.49187 0 9.68182 0 10.9104C0 12.1391 0.241175 13.3267 0.714424 14.4484C1.17175 15.5292 1.82701 16.503 2.66203 17.338C3.49704 18.173 4.46856 18.8283 5.55158 19.2856C6.67131 19.7606 7.87551 20.0044 9.09184 20.0023C10.2857 20.0035 11.468 19.769 12.571 19.3122C13.674 18.8553 14.676 18.1852 15.5194 17.3403C16.3544 16.5053 17.0097 15.5337 17.467 14.4507C17.942 13.331 18.1858 12.1268 18.1837 10.9104V10.3189C18.1814 10.2188 18.0995 10.1369 17.9994 10.1369ZM19.9993 8.87411L19.9402 8.2325C19.7468 6.13928 18.8185 4.16437 17.3214 2.67409C15.8257 1.17964 13.8547 0.254908 11.7493 0.0598472L11.1054 0.000691051C10.9985 -0.00840989 10.9075 0.0734986 10.9075 0.180435V8.91052C10.9075 9.01063 10.9894 9.09254 11.0895 9.09254L19.8173 9.06978C19.9242 9.06751 20.0084 8.97877 19.9993 8.87411Z" fill="white" fill-opacity="0.5"/>
</svg>
