<svg width="26" height="20" viewBox="0 0 26 20" fill="none" xmlns="http://www.w3.org/2000/svg">
<path d="M25.2497 11.6278L22.8623 2.00985C22.7688 1.69541 22.5762 1.41964 22.3131 1.22369C22.05 1.02774 21.7306 0.922126 21.4025 0.922609H4.76692C4.43365 0.922359 4.10952 1.0316 3.8444 1.23354C3.57927 1.43547 3.38783 1.71891 3.29951 2.04027L0.91974 11.6278C0.912414 11.6884 0.912414 11.7497 0.91974 11.8103V17.6495C0.91974 18.0527 1.07995 18.4395 1.36512 18.7247C1.65029 19.0099 2.03707 19.1701 2.44036 19.1701H23.7291C24.1324 19.1701 24.5192 19.0099 24.8043 18.7247C25.0895 18.4395 25.2497 18.0527 25.2497 17.6495V11.8027C25.2564 11.7446 25.2564 11.6859 25.2497 11.6278ZM2.44036 17.6495V11.9015L4.76692 2.44323H21.3949L23.7291 11.9015V17.6495H2.44036Z" fill="#424040"/>
<path d="M3.72159 12.2689H21.9691V10.7483H3.72159V12.2689Z" fill="#424040"/>
<path d="M16.3545 13.5554H20.9626V15.8595H16.3545V13.5554Z" fill="#424040"/>
</svg>
