<svg width="29" height="31" viewBox="0 0 29 31" fill="none" xmlns="http://www.w3.org/2000/svg">
<path d="M13.5565 30.8752H10.6114V15.5788L0 2.94622V0.556885H28.8024V2.93258L18.6963 15.5652V25.7354L13.5565 30.8752ZM12.6326 28.854H12.7194L16.6751 24.8983V14.8563L26.4976 2.57811H2.33072L12.6326 14.8426V28.854Z" fill="#424040" fill-opacity="0.75"/>
<path d="M13.3953 30.486H11.0006V15.5788V15.4371L10.9094 15.3285L0.389222 2.80444V0.946106H28.4132V2.79605L18.3924 15.3221L18.3071 15.4287V15.5652V25.5742L13.3953 30.486ZM12.2434 28.854V29.2432H12.6326H12.7194H12.8806L12.9946 29.1292L16.9503 25.1735L17.0643 25.0595V24.8983V14.9928L26.8015 2.82125L27.3074 2.18888H26.4976H2.33072H1.49547L2.03269 2.82845L12.2434 14.9844V28.854Z" stroke="#424040" stroke-opacity="0.75" stroke-width="0.778443"/>
</svg>
