<svg width="32" height="33" viewBox="0 0 32 33" fill="none" xmlns="http://www.w3.org/2000/svg">
<path d="M14.7556 33H11.55V16.3507L0 2.60068V0H31.35V2.58582L20.35 16.3358V27.4056L14.7556 33ZM13.75 30.8H13.8444L18.15 26.4944V15.5642L28.8413 2.2H2.53687L13.75 15.5493V30.8Z" fill="#424040" fill-opacity="0.75"/>
<path d="M14.5801 32.5764H11.9736V16.3507V16.1964L11.8744 16.0782L0.423649 2.44635V0.423649H30.9263V2.43722L20.0192 16.0712L19.9263 16.1872V16.3358V27.2301L14.5801 32.5764ZM13.3264 30.8V31.2236H13.75H13.8444H14.0199L14.144 31.0996L18.4496 26.794L18.5736 26.6699V26.4944V15.7128L29.1721 2.46465L29.7228 1.77635H28.8413H2.53687H1.62775L2.21248 2.47248L13.3264 15.7036V30.8Z" stroke="#424040" stroke-opacity="0.75" stroke-width="0.847297"/>
</svg>
