<svg width="575" height="683" viewBox="0 0 575 683" fill="none" xmlns="http://www.w3.org/2000/svg">
<path d="M1.86272 308.093C-15.1373 217.593 87.3627 54.5926 181.363 19.0927C269.439 -7.50693 315.373 -5.13572 393.363 18.9058C471.352 42.9472 589.863 217.406 572.863 307.906C555.863 398.406 496.863 418.406 496.863 418.406C408.228 444.432 361.73 446.082 281.863 436.593C213.05 443.261 176.115 449.075 77.8627 418.593C77.8627 418.593 18.8627 398.593 1.86272 308.093Z" fill="#51A135"/>
<path d="M168.863 598.647V358.147C184.101 337.696 194.694 329.686 217.863 322.647C237.799 297.534 257.37 286.72 288.863 287.647C320.355 286.72 338.426 297.534 358.363 322.647C381.532 329.686 392.124 337.696 407.363 358.147V598.647C395.863 638.147 328.863 683.647 293.863 682.147H282.363C247.363 683.647 180.363 638.147 168.863 598.647Z" fill="#72CAF6"/>
<circle cx="245.862" cy="599.647" r="19" fill="#0089EF"/>
<circle cx="329.862" cy="599.647" r="19" fill="#0089EF"/>
<path d="M140.024 248.593C149.013 234.853 156.031 229.835 173.524 227.593C193.592 230.341 200.137 236.018 209.024 248.593C218.502 267.776 218.51 287.107 211.024 287.593C203.538 288.078 201.524 276.593 196.024 273.093C190.524 269.593 184.024 264.593 173.524 265.093C163.024 265.593 158.524 268.593 153.024 273.093C147.524 277.593 143.372 288.471 137.024 287.593C129.381 287.35 130.101 267.613 140.024 248.593Z" fill="#3A2C60" stroke="#3A2C60"/>
<path d="M370.024 248.593C379.013 234.853 386.031 229.835 403.524 227.593C423.592 230.341 430.137 236.018 439.024 248.593C448.502 267.776 448.51 287.107 441.024 287.593C433.538 288.078 431.524 276.593 426.024 273.093C420.524 269.593 414.024 264.593 403.524 265.093C393.024 265.593 388.524 268.593 383.024 273.093C377.524 277.593 373.372 288.471 367.024 287.593C359.381 287.35 360.101 267.613 370.024 248.593Z" fill="#3A2C60" stroke="#3A2C60"/>
<path d="M434.36 207.419C432.23 207.419 430.101 206.506 428.58 204.783C415.194 189.673 396.637 185.414 380.006 193.628C376.153 195.555 371.59 193.932 369.663 190.18C367.736 186.327 369.359 181.763 373.111 179.837C396.231 168.378 421.887 174.057 440.039 194.541C442.878 197.684 442.574 202.653 439.43 205.391C438.01 206.709 436.185 207.419 434.36 207.419Z" fill="#3C8124"/>
<path d="M144.647 207.42C142.822 207.42 140.997 206.812 139.577 205.494C136.433 202.654 136.129 197.787 138.867 194.643C157.019 174.058 182.674 168.48 205.795 179.939C209.648 181.866 211.17 186.429 209.243 190.283C207.316 194.136 202.753 195.657 198.899 193.73C182.37 185.517 163.712 189.776 150.326 204.885C148.906 206.508 146.777 207.42 144.647 207.42Z" fill="#3C8124"/>
</svg>
