<svg width="41" height="41" viewBox="0 0 41 41" fill="none" xmlns="http://www.w3.org/2000/svg">
<path d="M3.375 40.5C3.375 40.5 0 40.5 0 37.125C0 33.75 3.375 23.625 20.25 23.625C37.125 23.625 40.5 33.75 40.5 37.125C40.5 40.5 37.125 40.5 37.125 40.5H3.375ZM20.25 20.25C22.9353 20.25 25.5107 19.1833 27.4095 17.2845C29.3083 15.3856 30.375 12.8103 30.375 10.125C30.375 7.43968 29.3083 4.86435 27.4095 2.96554C25.5107 1.06674 22.9353 0 20.25 0C17.5647 0 14.9894 1.06674 13.0905 2.96554C11.1917 4.86435 10.125 7.43968 10.125 10.125C10.125 12.8103 11.1917 15.3856 13.0905 17.2845C14.9894 19.1833 17.5647 20.25 20.25 20.25Z" fill="#73CAF6"/>
</svg>
