<svg width="575" height="683" viewBox="0 0 575 683" fill="none" xmlns="http://www.w3.org/2000/svg">
<path d="M1.86272 308.093C-15.1373 217.593 87.3627 54.5926 181.363 19.0927C269.439 -7.50693 315.373 -5.13572 393.363 18.9058C471.352 42.9472 589.863 217.406 572.863 307.906C555.863 398.406 496.863 418.406 496.863 418.406C408.228 444.432 361.73 446.082 281.863 436.593C213.05 443.261 176.115 449.075 77.8627 418.593C77.8627 418.593 18.8627 398.593 1.86272 308.093Z" fill="#F8A467"/>
<path d="M168.863 598.647V358.147C184.101 337.696 194.694 329.686 217.863 322.647C237.799 297.534 257.37 286.72 288.863 287.647C320.355 286.72 338.426 297.534 358.363 322.647C381.532 329.686 392.124 337.696 407.363 358.147V598.647C395.863 638.147 328.863 683.647 293.863 682.147H282.363C247.363 683.647 180.363 638.147 168.863 598.647Z" fill="#72CAF6"/>
<circle cx="245.862" cy="599.647" r="19" fill="#0089EF"/>
<circle cx="329.862" cy="599.647" r="19" fill="#0089EF"/>
<circle cx="175" cy="259" r="31" fill="#3A2C60"/>
<circle cx="405" cy="259" r="31" fill="#3A2C60"/>
<path d="M195.438 204H153.562C150.231 204 147.035 203.052 144.679 201.364C142.324 199.676 141 197.387 141 195C141 192.613 142.324 190.324 144.679 188.636C147.035 186.948 150.231 186 153.562 186H195.438C198.769 186 201.965 186.948 204.321 188.636C206.676 190.324 208 192.613 208 195C208 197.387 206.676 199.676 204.321 201.364C201.965 203.052 198.769 204 195.438 204Z" fill="#D6864C"/>
<path d="M423.438 204H381.562C378.231 204 375.035 203.052 372.679 201.364C370.324 199.676 369 197.387 369 195C369 192.613 370.324 190.324 372.679 188.636C375.035 186.948 378.231 186 381.562 186H423.438C426.769 186 429.965 186.948 432.321 188.636C434.676 190.324 436 192.613 436 195C436 197.387 434.676 199.676 432.321 201.364C429.965 203.052 426.769 204 423.438 204Z" fill="#D6864C"/>
</svg>
