<svg width="170" height="56" viewBox="0 0 170 56" fill="none" xmlns="http://www.w3.org/2000/svg">
<path d="M7.95358 14.7675C8.88417 14.7865 9.84325 14.834 10.8308 14.91C11.8184 14.9859 12.806 15.1284 13.7935 15.3373L13.6226 17.1605C12.806 17.1225 11.9038 17.094 10.9163 17.075C9.92871 17.037 8.97913 17.0181 8.06753 17.0181C7.11795 17.0181 6.34878 17.0655 5.76004 17.1605C5.19029 17.2554 4.77247 17.5118 4.50659 17.9297C4.24071 18.3475 4.10776 19.0407 4.10776 20.0092C4.10776 21.0918 4.29768 21.8514 4.67751 22.2882C5.07634 22.7061 5.71256 23.0194 6.58618 23.2283L10.5744 24.2254C12.0938 24.5862 13.1288 25.2225 13.6796 26.1341C14.2493 27.0267 14.5342 28.2326 14.5342 29.752C14.5342 31.2523 14.3063 32.3918 13.8505 33.1705C13.3947 33.9301 12.6825 34.4429 11.7139 34.7088C10.7454 34.9747 9.49191 35.1076 7.95358 35.1076C7.30786 35.1076 6.46273 35.0791 5.41819 35.0222C4.39264 34.9652 3.20566 34.8133 1.85725 34.5664L2.02818 32.7147C3.14868 32.7527 4.05079 32.7906 4.73449 32.8286C5.41819 32.8476 6.00693 32.8571 6.50072 32.8571C6.9945 32.8571 7.50728 32.8571 8.03904 32.8571C9.0456 32.8571 9.83376 32.7811 10.4035 32.6292C10.9922 32.4773 11.4006 32.1734 11.6285 31.7176C11.8754 31.2618 11.9988 30.5876 11.9988 29.695C11.9988 28.9353 11.9133 28.3466 11.7424 27.9288C11.5715 27.511 11.2961 27.1976 10.9163 26.9887C10.5554 26.7608 10.0901 26.5804 9.52039 26.4474L5.44668 25.4219C4.0223 25.061 3.01574 24.4343 2.427 23.5417C1.85725 22.6491 1.57238 21.4526 1.57238 19.9523C1.57238 18.4139 1.80028 17.2839 2.25608 16.5623C2.71188 15.8216 3.40507 15.3373 4.33566 15.1094C5.28525 14.8815 6.49122 14.7675 7.95358 14.7675ZM37.0264 15.1094C37.7101 15.1094 38.052 15.4607 38.052 16.1634L38.8781 34.7658H36.3712L35.659 17.189H35.0608L30.6737 31.6891C30.5218 32.2589 30.1609 32.5438 29.5912 32.5438H27.3407C26.7519 32.5438 26.3721 32.2589 26.2012 31.6891L21.8141 17.189H21.2443L20.5606 34.7658H18.0537L18.8229 16.1634C18.8609 15.4607 19.2122 15.1094 19.8769 15.1094H22.7257C23.2575 15.1094 23.6088 15.3943 23.7797 15.964L27.4546 27.9573C27.6066 28.3941 27.73 28.8309 27.825 29.2677C27.9389 29.7045 28.0624 30.1508 28.1953 30.6066H28.7081C28.841 30.1508 28.9645 29.7045 29.0784 29.2677C29.1924 28.8309 29.3158 28.3751 29.4487 27.9003L33.1236 15.964C33.2756 15.3943 33.6364 15.1094 34.2062 15.1094H37.0264ZM45.9417 15.1094V34.7658H43.4348V15.1094H45.9417ZM64.2796 15.1094V17.3314H57.9269V34.7658H55.42V17.3314H49.0958V15.1094H64.2796ZM80.8324 15.1094L74.3088 27.8718V34.7658H71.8019V27.8148L65.2783 15.1094H67.9561L72.0868 23.3993C72.2577 23.7601 72.4096 24.1304 72.5426 24.5103C72.6945 24.8901 72.8369 25.2604 72.9699 25.6213H73.1693C73.3022 25.2604 73.4447 24.8901 73.5966 24.5103C73.7485 24.1304 73.9005 23.7696 74.0524 23.4277L78.1831 15.1094H80.8324Z" fill="white"/>
<path d="M137.592 15.1094C138.618 15.1094 139.149 15.6412 139.187 16.7047L139.928 34.7658H135.911L135.256 18.4424H134.743L131.581 30.7205C131.391 31.6322 130.822 32.088 129.872 32.088H127.137C126.169 32.088 125.589 31.6322 125.399 30.7205L122.209 18.4424H121.724L121.126 34.7658H117.11L117.822 16.7047C117.86 15.6412 118.401 15.1094 119.445 15.1094H123.519C124.45 15.1094 125.02 15.5652 125.228 16.4768L127.764 26.3904C127.878 26.8462 127.973 27.3115 128.049 27.7863C128.125 28.2421 128.21 28.7074 128.305 29.1822H128.675C128.77 28.7074 128.856 28.2421 128.932 27.7863C129.008 27.3115 129.103 26.8368 129.217 26.362L131.724 16.4768C131.914 15.5652 132.493 15.1094 133.461 15.1094H137.592ZM147.564 15.0239C149.103 15.0239 150.698 15.0429 152.35 15.0809C154.003 15.0999 155.512 15.1759 156.88 15.3088L156.68 18.4709H149.131C148.182 18.4709 147.707 18.9552 147.707 19.9238V23.0004H155.626V26.0771H147.707V29.9514C147.707 30.92 148.182 31.4043 149.131 31.4043H156.68L156.88 34.5664C155.512 34.6993 154.003 34.7753 152.35 34.7943C150.698 34.8133 149.103 34.8228 147.564 34.8228C146.311 34.8228 145.295 34.4714 144.516 33.7687C143.738 33.047 143.348 32.088 143.348 30.8915V18.9837C143.348 17.7872 143.738 16.8281 144.516 16.1065C145.295 15.3848 146.311 15.0239 147.564 15.0239Z" fill="#FD719B"/>
<path d="M95.9479 29.362C96.3087 28.4504 96.4892 27.5767 96.4892 26.7411C96.4892 26.4752 96.3182 26.3233 95.9764 26.2853L95.0648 26.2283V24.0063H101.076V26.3138L99.5088 26.3708C99.5088 28.194 99.11 29.8652 98.3124 31.3846C99.167 32.1063 100.363 33.0179 101.902 34.1194L100.022 36.5978C98.8821 35.8381 97.6856 34.9455 96.4322 33.92C95.0268 35.3253 93.1276 36.028 90.7347 36.028C88.3417 36.028 86.5945 35.4678 85.493 34.3473C84.3915 33.2268 83.8407 31.8594 83.8407 30.2451C83.8407 27.7382 84.9992 25.763 87.3162 24.3197C86.7274 23.3511 86.4331 22.3065 86.4331 21.186C86.4331 19.7427 86.9174 18.5747 87.8859 17.6821C88.8545 16.7895 90.2124 16.3432 91.9596 16.3432C93.7259 16.3432 95.4446 16.7325 97.1159 17.5111V21.8128L94.2102 22.0122V20.2744C94.2102 19.7427 94.0107 19.4103 93.6119 19.2774C93.0991 19.1254 92.5959 19.0495 92.1021 19.0495C90.5638 19.0495 89.7946 19.7807 89.7946 21.243C89.7946 23.1802 91.8457 25.8865 95.9479 29.362ZM94.0392 31.9258C91.7602 29.9887 90.0415 28.2414 88.883 26.6841C87.7245 27.5008 87.1453 28.6118 87.1453 30.0172C87.1453 30.9857 87.4396 31.7739 88.0284 32.3816C88.6361 32.9704 89.5857 33.2647 90.8771 33.2647C92.1875 33.2647 93.2416 32.8184 94.0392 31.9258Z" fill="white"/>
<path d="M151.833 3.05176e-05C147.471 0.00220545 143.266 1.62976 140.039 4.56504C138.813 5.67294 137.749 6.94863 136.88 8.35426C136.01 6.94842 134.947 5.67221 133.72 4.56328C130.493 1.62923 126.289 0.00240008 121.927 3.05176e-05C112.227 3.05176e-05 104.336 7.8916 104.336 17.5916C104.336 24.1392 106.373 29.3076 111.145 34.8753C118.08 42.9674 135.631 55.3167 136.375 55.8391C136.523 55.9438 136.699 56 136.88 56C137.061 56 137.237 55.9438 137.385 55.8391C138.129 55.3167 155.68 42.9674 162.616 34.8753C167.387 29.3076 169.424 24.1392 169.424 17.5916C169.424 7.8916 161.533 3.05176e-05 151.833 3.05176e-05ZM161.281 33.7318C155.133 40.9021 139.855 51.9232 136.88 54.0413C133.905 51.9232 118.627 40.9021 112.48 33.7318C108.003 28.5089 106.095 23.6818 106.095 17.5916C106.095 8.86089 113.198 1.75919 121.927 1.75919C125.845 1.75919 129.615 3.21752 132.538 5.86681C134.005 7.1933 135.21 8.78285 136.092 10.5532C136.391 11.1513 137.369 11.1513 137.668 10.5532C138.549 8.78312 139.754 7.19408 141.222 5.86857C144.124 3.22643 147.908 1.76124 151.833 1.75919C160.562 1.75919 167.665 8.86089 167.665 17.5916C167.665 23.6818 165.756 28.5089 161.281 33.7318Z" fill="white"/>
</svg>
