<svg width="42" height="42" viewBox="0 0 42 42" fill="none" xmlns="http://www.w3.org/2000/svg">
<path d="M13.0832 19.3232C12.8938 19.521 12.7454 19.7542 12.6464 20.0096C12.4383 20.516 12.4383 21.084 12.6464 21.5904C12.7454 21.8457 12.8938 22.079 13.0832 22.2768L19.3232 28.5168C19.7148 28.9084 20.2461 29.1285 20.8 29.1285C21.3539 29.1285 21.8851 28.9084 22.2768 28.5168C22.6684 28.1251 22.8885 27.5939 22.8885 27.04C22.8885 26.4861 22.6684 25.9548 22.2768 25.5632L19.5728 22.88H27.04C27.5916 22.88 28.1207 22.6608 28.5108 22.2708C28.9008 21.8807 29.12 21.3516 29.12 20.8C29.12 20.2483 28.9008 19.7193 28.5108 19.3292C28.1207 18.9391 27.5916 18.72 27.04 18.72H19.5728L22.2768 16.0368C22.4717 15.8434 22.6265 15.6134 22.7321 15.3599C22.8377 15.1064 22.892 14.8346 22.892 14.56C22.892 14.2854 22.8377 14.0135 22.7321 13.7601C22.6265 13.5066 22.4717 13.2765 22.2768 13.0832C22.0834 12.8882 21.8534 12.7335 21.5999 12.6279C21.3464 12.5223 21.0746 12.4679 20.8 12.4679C20.5254 12.4679 20.2535 12.5223 20.0001 12.6279C19.7466 12.7335 19.5165 12.8882 19.3232 13.0832L13.0832 19.3232ZM-2.28882e-05 20.8C-2.28882e-05 24.9138 1.21988 28.9353 3.50541 32.3558C5.79094 35.7764 9.03946 38.4424 12.8402 40.0167C16.6409 41.591 20.823 42.0029 24.8578 41.2003C28.8927 40.3977 32.5989 38.4167 35.5078 35.5078C38.4167 32.5989 40.3977 28.8927 41.2003 24.8578C42.0029 20.823 41.591 16.6409 40.0167 12.8402C38.4424 9.03946 35.7764 5.79094 32.3558 3.50541C28.9353 1.21988 24.9138 -2.28882e-05 20.8 -2.28882e-05C15.2835 -2.28882e-05 9.99291 2.1914 6.09216 6.09216C2.1914 9.99291 -2.28882e-05 15.2835 -2.28882e-05 20.8ZM37.44 20.8C37.44 24.0911 36.464 27.3082 34.6356 30.0447C32.8072 32.7811 30.2084 34.9139 27.1678 36.1733C24.1273 37.4328 20.7815 37.7623 17.5537 37.1202C14.3258 36.4782 11.3609 34.8934 9.03372 32.5662C6.70657 30.2391 5.12177 27.2741 4.47971 24.0463C3.83765 20.8184 4.16718 17.4727 5.42662 14.4321C6.68606 11.3916 8.81886 8.79275 11.5553 6.96432C14.2917 5.1359 17.5089 4.15998 20.8 4.15998C25.2132 4.15998 29.4456 5.91311 32.5662 9.03372C35.6868 12.1543 37.44 16.3868 37.44 20.8Z" fill="white"/>
</svg>
