<svg width="66" height="56" viewBox="0 0 66 56" fill="none" xmlns="http://www.w3.org/2000/svg">
<path d="M33.2176 15.3436C34.2431 15.3436 34.7749 15.8754 34.8129 16.9389L35.5536 35H31.5368L30.8816 18.6767H30.3688L27.2067 30.9548C27.0168 31.8664 26.4471 32.3222 25.4975 32.3222H22.7627C21.7941 32.3222 21.2149 31.8664 21.0249 30.9548L17.8343 18.6767H17.35L16.7518 35H12.7351L13.4473 16.9389C13.4852 15.8754 14.0265 15.3436 15.071 15.3436H19.1448C20.0754 15.3436 20.6451 15.7994 20.854 16.711L23.3894 26.6247C23.5033 27.0805 23.5983 27.5458 23.6743 28.0206C23.7502 28.4764 23.8357 28.9417 23.9307 29.4164H24.301C24.396 28.9417 24.4814 28.4764 24.5574 28.0206C24.6334 27.5458 24.7283 27.071 24.8423 26.5962L27.3492 16.711C27.5391 15.7994 28.1183 15.3436 29.0869 15.3436H33.2176ZM43.19 15.2581C44.7283 15.2581 46.3236 15.2771 47.9759 15.3151C49.6282 15.3341 51.138 15.4101 52.5054 15.543L52.306 18.7051H44.7568C43.8072 18.7051 43.3324 19.1894 43.3324 20.158V23.2347H51.252V26.3113H43.3324V30.1856C43.3324 31.1542 43.8072 31.6385 44.7568 31.6385H52.306L52.5054 34.8006C51.138 34.9335 49.6282 35.0095 47.9759 35.0285C46.3236 35.0475 44.7283 35.057 43.19 35.057C41.9366 35.057 40.9205 34.7056 40.1418 34.0029C39.3632 33.2813 38.9739 32.3222 38.9739 31.1257V19.2179C38.9739 18.0214 39.3632 17.0624 40.1418 16.3407C40.9205 15.619 41.9366 15.2581 43.19 15.2581Z" fill="#FD719B"/>
<path d="M47.4972 0C43.1352 0.00217493 38.9305 1.62973 35.7038 4.56501C34.4774 5.67291 33.4137 6.9486 32.5444 8.35423C31.6746 6.94839 30.611 5.67218 29.3849 4.56325C26.1576 1.6292 21.9532 0.00236956 17.5916 0C7.89157 0 0 7.89157 0 17.5915C0 24.1391 2.0371 29.3075 6.80969 34.8752C13.7443 42.9674 31.2954 55.3166 32.0395 55.8391C32.187 55.9438 32.3635 56 32.5444 56C32.7253 56 32.9017 55.9438 33.0492 55.8391C33.7934 55.3166 51.3445 42.9674 58.2808 34.8752C63.0516 29.3075 65.0887 24.1391 65.0887 17.5915C65.0887 7.89157 57.1972 0 47.4972 0ZM56.9456 33.7318C50.7974 40.9021 35.5191 51.9232 32.5444 54.0412C29.5696 51.9232 14.2914 40.9021 8.14489 33.7318C3.66784 28.5089 1.75916 23.6817 1.75916 17.5915C1.75916 8.86086 8.86262 1.75915 17.5916 1.75915C21.5092 1.75915 25.2791 3.21749 28.2028 5.86678C29.6696 7.19327 30.8749 8.78282 31.7563 10.5532C32.0553 11.1513 33.0334 11.1513 33.3325 10.5532C34.2135 8.78309 35.4189 7.19405 36.886 5.86854C39.7887 3.2264 43.5721 1.76121 47.4972 1.75915C56.2261 1.75915 63.3296 8.86086 63.3296 17.5915C63.3296 23.6817 61.4209 28.5089 56.9456 33.7318Z" fill="white"/>
</svg>
