<svg width="27" height="27" viewBox="0 0 27 27" fill="none" xmlns="http://www.w3.org/2000/svg">
<path d="M11.5459 23.0917C14.1076 23.0912 16.5955 22.2336 18.6134 20.6555L24.9578 27L26.9986 24.9593L20.6541 18.6148C22.233 16.5967 23.0911 14.1082 23.0917 11.5459C23.0917 5.17976 17.912 0 11.5459 0C5.17976 0 0 5.17976 0 11.5459C0 17.912 5.17976 23.0917 11.5459 23.0917ZM11.5459 2.88647C16.3215 2.88647 20.2053 6.77021 20.2053 11.5459C20.2053 16.3215 16.3215 20.2053 11.5459 20.2053C6.77021 20.2053 2.88647 16.3215 2.88647 11.5459C2.88647 6.77021 6.77021 2.88647 11.5459 2.88647Z" fill="#424040"/>
<path d="M13.5837 9.50524C14.1307 10.0537 14.4323 10.7782 14.4323 11.546H17.3188C17.3201 10.7874 17.171 10.0362 16.8802 9.33564C16.5893 8.63508 16.1625 7.99912 15.6244 7.46451C13.4394 5.28234 9.6509 5.28234 7.46729 7.46451L9.50513 9.50813C10.602 8.41415 12.4926 8.41704 13.5837 9.50524Z" fill="#424040"/>
</svg>
