<svg width="168" height="155" viewBox="0 0 168 155" fill="none" xmlns="http://www.w3.org/2000/svg">
<path d="M150.845 0H16.7606C12.3169 0.00488001 8.05662 1.77229 4.91445 4.91445C1.77229 8.05662 0.00488001 12.3169 0 16.7606V110.62C0.00488001 115.064 1.77229 119.324 4.91445 122.466C8.05662 125.608 12.3169 127.376 16.7606 127.38H150.845C155.289 127.376 159.549 125.608 162.691 122.466C165.834 119.324 167.601 115.064 167.606 110.62V16.7606C167.601 12.3169 165.834 8.05662 162.691 4.91445C159.549 1.77229 155.289 0.00488001 150.845 0ZM160.902 110.62C160.899 113.286 159.838 115.842 157.953 117.728C156.068 119.613 153.512 120.673 150.845 120.676H16.7606C14.0944 120.673 11.5382 119.613 9.65286 117.728C7.76755 115.842 6.70712 113.286 6.70424 110.62V16.7606C6.70712 14.0944 7.76755 11.5382 9.65286 9.65286C11.5382 7.76755 14.0944 6.70712 16.7606 6.70424H150.845C153.512 6.70712 156.068 7.76755 157.953 9.65286C159.838 11.5382 160.899 14.0944 160.902 16.7606V110.62ZM113.972 150.845C113.972 151.734 113.619 152.587 112.99 153.216C112.362 153.844 111.509 154.197 110.62 154.197H56.986C56.097 154.197 55.2443 153.844 54.6157 153.216C53.9871 152.587 53.6339 151.734 53.6339 150.845C53.6339 149.956 53.9871 149.104 54.6157 148.475C55.2443 147.846 56.097 147.493 56.986 147.493H110.62C111.509 147.493 112.362 147.846 112.99 148.475C113.619 149.104 113.972 149.956 113.972 150.845Z" fill="#434343"/>
<path d="M82.5 24.5891C74.836 24.5891 67.3441 26.8618 60.9717 31.1197C54.5993 35.3776 49.6326 41.4295 46.6997 48.5101C43.7668 55.5908 42.9994 63.3821 44.4946 70.8989C45.9898 78.4156 49.6804 85.3202 55.0996 90.7395C60.5189 96.1588 67.4235 99.8494 74.9403 101.345C82.457 102.84 90.2484 102.072 97.329 99.1394C104.41 96.2065 110.462 91.2399 114.719 84.8675C118.977 78.495 121.25 71.0031 121.25 63.3391C121.25 58.2504 120.248 53.2115 118.3 48.5101C116.353 43.8088 113.499 39.537 109.9 35.9387C106.302 32.3405 102.03 29.4861 97.329 27.5388C92.6276 25.5914 87.5887 24.5891 82.5 24.5891ZM82.5 82.7141C81.7336 82.7141 80.9844 82.4868 80.3472 82.0611C79.7099 81.6353 79.2133 81.0301 78.92 80.322C78.6267 79.6139 78.55 78.8348 78.6995 78.0831C78.849 77.3315 79.2181 76.641 79.76 76.0991C80.3019 75.5571 80.9924 75.1881 81.744 75.0386C82.4957 74.889 83.2749 74.9658 83.9829 75.2591C84.691 75.5524 85.2962 76.049 85.722 76.6863C86.1478 77.3235 86.375 78.0727 86.375 78.8391C86.375 79.8668 85.9668 80.8524 85.2401 81.5792C84.5134 82.3059 83.5277 82.7141 82.5 82.7141ZM86.375 67.2141C86.375 68.2418 85.9668 69.2274 85.2401 69.9541C84.5134 70.6809 83.5277 71.0891 82.5 71.0891C81.4723 71.0891 80.4867 70.6809 79.76 69.9541C79.0333 69.2274 78.625 68.2418 78.625 67.2141V47.8391C78.625 46.8114 79.0333 45.8258 79.76 45.0991C80.4867 44.3724 81.4723 43.9641 82.5 43.9641C83.5277 43.9641 84.5134 44.3724 85.2401 45.0991C85.9668 45.8258 86.375 46.8114 86.375 47.8391V67.2141Z" fill="#FACE4B"/>
</svg>
