<svg width="22" height="14" viewBox="0 0 22 14" fill="none" xmlns="http://www.w3.org/2000/svg">
<path d="M4.21698 3.22656H6.86832V8.01608H4.21698V3.22656Z" fill="#424040"/>
<path d="M9.51959 3.22656H12.1709V8.01608H9.51959V3.22656Z" fill="#424040"/>
<path d="M14.8223 3.22656H17.4737V8.01608H14.8223V3.22656Z" fill="#424040"/>
<path d="M8.85679 12.207H1.5656V6.22009H0.239929V12.207C0.239929 12.5246 0.379598 12.8291 0.628209 13.0537C0.876821 13.2782 1.21401 13.4044 1.5656 13.4044H9.92396V11.3389H11.422V10.4109H8.85679V12.207Z" fill="#424040"/>
<path d="M20.125 0.233154H1.5656C1.21401 0.233154 0.876821 0.359306 0.628209 0.583859C0.379598 0.808411 0.239929 1.11297 0.239929 1.43053V3.82529H1.5656V1.43053H20.125V3.82529H21.4507V1.43053C21.4507 1.11297 21.311 0.808411 21.0624 0.583859C20.8138 0.359306 20.4766 0.233154 20.125 0.233154Z" fill="#424040"/>
<path d="M20.125 12.207H11.5081V13.4044H20.125C20.4766 13.4044 20.8138 13.2782 21.0624 13.0537C21.311 12.8291 21.4506 12.5246 21.4506 12.207V6.22009H20.125V12.207Z" fill="#424040"/>
</svg>
