<svg width="575" height="683" viewBox="0 0 575 683" fill="none" xmlns="http://www.w3.org/2000/svg">
<path d="M1.86272 308.093C-15.1373 217.593 87.3627 54.5926 181.363 19.0927C269.439 -7.50693 315.373 -5.13572 393.363 18.9058C471.352 42.9472 589.863 217.406 572.863 307.906C555.863 398.406 496.863 418.406 496.863 418.406C408.228 444.432 361.73 446.082 281.863 436.593C213.05 443.261 176.115 449.075 77.8627 418.593C77.8627 418.593 18.8627 398.593 1.86272 308.093Z" fill="#FD7171"/>
<path d="M168.863 598.647V358.147C184.101 337.696 194.694 329.686 217.863 322.647C237.799 297.534 257.37 286.72 288.863 287.647C320.355 286.72 338.426 297.534 358.363 322.647C381.532 329.686 392.124 337.696 407.363 358.147V598.647C395.863 638.147 328.863 683.647 293.863 682.147H282.363C247.363 683.647 180.363 638.147 168.863 598.647Z" fill="#72CAF6"/>
<circle cx="245.862" cy="599.647" r="19" fill="#0089EF"/>
<circle cx="329.862" cy="599.647" r="19" fill="#0089EF"/>
<circle cx="172" cy="245" r="31" fill="#3A2C60"/>
<circle cx="402" cy="245" r="31" fill="#3A2C60"/>
<path d="M188.985 151.125C190.701 150.501 192.624 150.449 194.409 151.202C198.334 152.795 200.285 157.265 198.787 161.155C188.771 186.707 166.57 200.723 140.924 197.863C136.644 197.37 133.654 193.602 134.147 189.322C134.639 185.042 138.407 182.052 142.687 182.545C161.029 184.61 177.106 174.226 184.516 155.45C185.295 153.44 186.984 151.854 188.985 151.125Z" fill="#E14242"/>
<path d="M386.091 151.125C384.376 150.501 382.453 150.449 380.668 151.202C376.743 152.795 374.792 157.265 376.29 161.155C386.306 186.707 408.507 200.723 434.152 197.863C438.432 197.37 441.423 193.602 440.93 189.322C440.437 185.042 436.67 182.052 432.39 182.545C414.048 184.61 397.971 174.226 390.561 155.45C389.781 153.44 388.092 151.854 386.091 151.125Z" fill="#E14242"/>
<path d="M151 262C151.244 262 151.486 262.047 151.711 262.14C151.937 262.233 152.142 262.37 152.315 262.542V262.55C153.266 263.497 156.148 266.375 158.8 270.235C161.422 274.049 164 279.075 164 284.286C164 289.252 162.663 293.022 160.215 295.559C157.764 298.095 154.447 299.143 151 299.143C147.553 299.143 144.233 298.095 141.785 295.559C139.337 293.022 138 289.252 138 284.286C138 279.075 140.578 274.049 143.2 270.235C145.123 267.48 147.292 264.907 149.681 262.546H149.685C149.858 262.373 150.063 262.236 150.288 262.142C150.514 262.048 150.756 262 151 262Z" fill="#73CAF6"/>
</svg>
